<svg width="24" height="24" viewBox="0 0 24 24" fill="none" xmlns="http://www.w3.org/2000/svg">
<path d="M13.6819 14.7351C12.0085 16.0114 10.3352 17.2876 8.66181 18.5639C6.59498 20.1423 4.53247 21.7252 2.46563 23.3081C2.3878 23.3712 2.31862 23.4479 2.24511 23.52C2.01594 23.52 1.78677 23.52 1.55328 23.52C1.51437 23.4749 1.4841 23.4208 1.43654 23.3892C1.00847 23.0961 0.913342 22.5595 1.21169 22.122C1.27655 22.095 1.34573 22.0769 1.39762 22.0363C1.84299 21.6981 2.28835 21.3554 2.73371 21.0171C4.10007 19.9754 5.46643 18.9427 6.82847 17.9009C8.37643 16.7194 9.92007 15.5288 11.468 14.3428C11.8183 14.0722 12.1642 13.7971 12.5144 13.5265C12.7739 13.7836 13.029 14.0406 13.2884 14.2977C13.4225 14.442 13.5522 14.5908 13.6819 14.7351Z" fill="#937367"/>
<path d="M12.5188 13.522C12.1685 13.7926 11.8226 14.0722 11.4724 14.3383C9.92873 15.5243 8.38076 16.7104 6.8328 17.8964C5.47076 18.9382 4.1044 19.9754 2.73804 21.0126C2.29268 21.3554 1.85164 21.6981 1.40627 22.0363C1.35006 22.0769 1.28088 22.0949 1.22035 22.122C2.06783 20.9134 2.91532 19.7003 3.76281 18.4917C5.61778 15.849 7.47274 13.2063 9.3277 10.5637C9.37959 10.4915 9.4358 10.4239 9.48769 10.3517C9.55254 10.4103 9.6174 10.469 9.67794 10.5321C10.4995 11.3889 11.321 12.2458 12.1383 13.1026C12.2636 13.2424 12.389 13.3822 12.5188 13.522Z" fill="#AE8A82"/>
<path d="M18.6847 7.90296C19.0306 7.99315 19.3808 8.08335 19.7267 8.17354C19.277 8.8049 18.7106 9.27841 17.9928 9.55351C17.5388 9.72487 17.0632 9.79703 16.5876 9.83311C16.2849 9.85566 15.9779 9.81507 15.6709 9.80154C15.9433 9.70232 16.2114 9.60311 16.4838 9.50841C16.8989 9.35959 16.9854 9.10705 16.7043 8.75078C16.5097 8.50726 16.2719 8.29981 16.0471 8.07884C15.8914 7.92551 15.7228 7.79022 15.6622 7.55571C15.5671 7.21298 15.6622 6.90181 15.8395 6.64025C16.1206 6.22986 16.4578 5.86007 16.7735 5.47224C16.8038 5.43616 16.834 5.40459 16.8859 5.34597C16.7951 5.34146 16.7389 5.33244 16.687 5.33244C16.2027 5.30989 15.7271 5.364 15.2601 5.47675C14.4861 5.66164 13.8289 6.04497 13.3619 6.73044C13.1327 7.07318 12.9166 7.42493 12.696 7.77218C12.5966 7.66846 12.4971 7.56473 12.3934 7.4565C12.3631 7.14984 12.3199 6.84769 12.2982 6.54103C12.1772 4.77324 12.8949 3.43386 14.4126 2.68074C15.3466 2.21624 16.3281 2.13958 17.3356 2.2884C18.1009 2.40114 18.8663 2.54545 19.6316 2.67172C20.1678 2.76191 20.691 2.69427 21.1925 2.4778C21.1882 2.50486 21.1882 2.54094 21.1796 2.56349C20.9115 3.20386 20.4877 3.71346 19.891 4.01561C19.2987 4.31325 18.6717 4.53422 18.062 4.78676C17.7334 4.92206 17.448 5.12499 17.2664 5.44067C16.9551 5.98634 17.0891 6.92436 17.5042 7.39336C17.8199 7.76767 18.2047 7.94355 18.6847 7.90296Z" fill="#FED131"/>
<path d="M12.389 7.461C12.4885 7.56473 12.5879 7.66845 12.6917 7.77668C13.4657 8.58392 14.244 9.39566 15.018 10.2029C15.3509 10.5456 15.6795 10.8929 16.0125 11.2356C16.3584 11.6099 16.7086 11.9797 17.0545 12.354C16.9075 12.4307 16.7692 12.5209 16.6178 12.5795C15.9606 12.8501 15.2861 12.9764 14.5769 12.8546C14.3089 12.8095 14.0451 12.7599 13.777 12.7103C13.764 12.6968 13.7511 12.6832 13.7338 12.6697C12.5793 11.4701 11.4291 10.2705 10.2746 9.07096C10.2011 8.59294 10.1017 8.11491 10.0628 7.63688C10.0152 7.06866 10.1363 6.51848 10.3265 5.98634C10.4346 5.67968 10.6205 5.63458 10.8454 5.86457C11.3556 6.39672 11.8702 6.92886 12.389 7.461Z" fill="#06D6A0"/>
<path d="M18.6847 7.90296C18.209 7.94806 17.8199 7.76767 17.4956 7.40238C17.0805 6.93338 16.9464 5.99536 17.2578 5.44969C17.4394 5.13401 17.7248 4.93107 18.0534 4.79578C18.6674 4.54324 19.2943 4.32227 19.8824 4.02463C20.4791 3.72248 20.9072 3.21739 21.1709 2.57251C21.1839 2.54545 21.1796 2.51388 21.1839 2.48682C21.5082 2.26134 21.8065 2.00429 21.9319 1.59841C22.0098 1.34587 22.04 1.0798 22.1006 0.822747C22.1265 0.705495 22.1741 0.592753 22.213 0.480011C22.2735 0.480011 22.3341 0.480011 22.3946 0.480011C22.654 0.890393 22.801 1.34587 22.8918 1.8239C23.0432 2.6176 22.9437 3.38425 22.6324 4.12384C22.3038 4.895 21.7287 5.4091 20.998 5.7338C20.4532 5.97732 19.891 6.17575 19.3419 6.41476C19.1214 6.50946 18.8965 6.62672 18.7063 6.77554C18.2307 7.16337 18.2307 7.49709 18.6847 7.90296Z" fill="#F6BC17"/>
<path d="M10.2703 9.07096C11.4248 10.2705 12.575 11.4701 13.7295 12.6697C13.7424 12.6832 13.7554 12.6968 13.7727 12.7103C13.95 12.9042 14.1229 13.0981 14.3002 13.2875C14.231 13.3507 14.1575 13.4138 14.0927 13.4769C13.8246 13.7475 13.5608 14.0181 13.2927 14.2887C13.0333 14.0316 12.7782 13.7746 12.5188 13.5175C12.389 13.3777 12.2636 13.2334 12.1339 13.0981C11.3124 12.2413 10.4908 11.3844 9.67361 10.5276C9.61308 10.4645 9.54822 10.4058 9.48336 10.3472C9.33635 10.1849 9.18933 10.0225 9.04232 9.86467C8.80883 9.61213 8.8045 9.44076 9.03367 9.19273C9.14609 9.07096 9.26284 8.9492 9.38391 8.82744C9.63037 8.5749 9.79036 8.57941 10.0411 8.83646C10.1147 8.92214 10.1925 8.9943 10.2703 9.07096Z" fill="#F8B02E"/>
<path d="M16.0082 11.2356C15.6752 10.8929 15.3466 10.5456 15.0136 10.2029C15.2342 10.0676 15.4504 9.93232 15.6709 9.79703C15.9779 9.81056 16.2849 9.85115 16.5876 9.8286C17.0632 9.79252 17.5388 9.72037 17.9928 9.549C18.7106 9.27842 19.2727 8.8049 19.7267 8.16903C20.2067 8.09237 20.691 8.03374 21.1666 7.93904C21.3871 7.89394 21.5903 7.76316 21.8065 7.6865C21.88 7.66395 21.9925 7.65944 22.04 7.70454C22.0876 7.74963 22.1092 7.87591 22.0876 7.94806C21.6898 9.29195 20.9374 10.3472 19.7094 10.9786C19.1689 11.2537 18.5766 11.3619 17.9799 11.3574C17.3226 11.3484 16.6654 11.2807 16.0082 11.2356Z" fill="#F6BC18"/>
<path d="M14.3002 13.292C14.1229 13.0981 13.95 12.9042 13.7727 12.7148C14.0408 12.7644 14.3045 12.8095 14.5726 12.8591C15.2774 12.9809 15.9563 12.8546 16.6135 12.584C16.7648 12.5209 16.9075 12.4352 17.0502 12.3585C17.3788 12.6922 17.7118 13.0215 18.0274 13.3642C18.1874 13.5356 18.1355 13.7565 17.915 13.8242C17.5431 13.9414 17.1583 14.0451 16.7735 14.1083C16.1941 14.203 15.619 14.1173 15.0569 13.9414C15.018 13.9279 14.9704 13.9414 14.9315 13.9414C14.7239 13.725 14.5121 13.5085 14.3002 13.292Z" fill="#06D6A0"/>
<path d="M14.3002 13.292C14.5121 13.5085 14.724 13.7205 14.9358 13.9369C14.9402 13.9459 14.9402 13.9505 14.9445 13.955C15.3898 14.415 15.3898 14.4826 14.9531 14.9381C14.8969 14.9967 14.8407 15.0553 14.7845 15.114C14.4948 15.4161 14.3521 15.4161 14.0667 15.123C13.9413 14.9922 13.8073 14.8659 13.6819 14.7351C13.5522 14.5863 13.4225 14.442 13.2927 14.2932C13.5608 14.0226 13.8246 13.752 14.0927 13.4814C14.1575 13.4183 14.231 13.3552 14.3002 13.292Z" fill="#F28E2A"/>
<path d="M15.6709 9.79703C15.4504 9.93232 15.2342 10.0676 15.0136 10.2029C14.2397 9.39567 13.4614 8.58392 12.6874 7.77669C12.9079 7.42944 13.1241 7.07318 13.3533 6.73495C13.8203 6.04497 14.4818 5.66615 15.2515 5.48125C15.7185 5.36851 16.1984 5.3144 16.6784 5.33694C16.7346 5.34145 16.7908 5.34596 16.8773 5.35047C16.8254 5.4091 16.7951 5.44067 16.7648 5.47675C16.4492 5.86458 16.1163 6.23437 15.8309 6.64475C15.6536 6.90181 15.5585 7.21748 15.6536 7.56022C15.7185 7.79473 15.8828 7.93002 16.0384 8.08334C16.2633 8.29981 16.5011 8.50726 16.6957 8.75529C16.9767 9.11156 16.8902 9.3641 16.4751 9.51292C16.2114 9.5986 15.939 9.69782 15.6709 9.79703Z" fill="#F4962E"/>
<path d="M13.7727 12.7148C13.7597 12.7013 13.7467 12.6877 13.7294 12.6742C13.7424 12.6832 13.7554 12.6968 13.7727 12.7148Z" fill="#06D6A0"/>
</svg>
