<svg width="24" height="24" viewBox="0 0 24 24" fill="none" xmlns="http://www.w3.org/2000/svg">
<path d="M12.2601 15.8098C14.4959 15.8098 16.3083 13.9974 16.3083 11.7616C16.3083 9.52585 14.4959 7.71341 12.2601 7.71341C10.0244 7.71341 8.21191 9.52585 8.21191 11.7616C8.21191 13.9974 10.0244 15.8098 12.2601 15.8098Z" fill="#A6CE39"/>
<path fill-rule="evenodd" clip-rule="evenodd" d="M18.7459 14.9321C18.6484 14.9809 18.5021 14.8834 18.5996 14.7858C20.6481 12.3959 21.3309 9.56704 20.1116 7.46977C18.5996 4.88477 14.6977 4.34826 10.8934 5.71392C6.84516 7.17713 4.21138 10.2499 4.74789 13.3714C5.82091 19.7119 18.4045 19.1754 22.7941 18.834C22.9405 18.834 22.9405 19.0291 22.8429 19.0291C11.5762 21.6141 1.62638 20.0534 0.163168 14.3956C-1.25127 8.93298 6.89393 5.7627 10.552 4.78722C15.5756 3.47034 22.0138 3.51911 23.3307 7.17713C24.2086 9.51826 22.2576 12.5422 18.7459 14.9321Z" fill="#A6CE39"/>
</svg>
