<svg width="24" height="24" viewBox="0 0 24 24" fill="none" xmlns="http://www.w3.org/2000/svg">
<path d="M19.8889 1.67238H18.593V1.10691C18.5848 0.930639 18.5077 0.764243 18.3778 0.642337C18.2478 0.520431 18.075 0.452402 17.8953 0.452402C17.7156 0.452402 17.5427 0.520431 17.4128 0.642337C17.2829 0.764243 17.2058 0.930639 17.1976 1.10691V1.67238H7.54989V1.10691C7.54173 0.930639 7.46466 0.764243 7.33472 0.642337C7.20478 0.520431 7.03196 0.452402 6.85223 0.452402C6.6725 0.452402 6.49968 0.520431 6.36974 0.642337C6.2398 0.764243 6.16273 0.930639 6.15457 1.10691V1.67238H4.54469C4.31217 1.67219 4.08189 1.717 3.86701 1.80423C3.65213 1.89146 3.45687 2.01941 3.29239 2.18076C3.1279 2.34211 2.99742 2.5337 2.90839 2.74459C2.81936 2.95547 2.77354 3.18151 2.77354 3.40979V22.2626C2.77354 22.4907 2.81932 22.7167 2.90825 22.9275C2.99719 23.1383 3.12754 23.3298 3.29188 23.4911C3.45621 23.6525 3.6513 23.7804 3.86601 23.8677C4.08073 23.9551 4.31085 24 4.54325 24H19.8889C20.1213 24 20.3514 23.9551 20.5662 23.8677C20.7809 23.7804 20.976 23.6525 21.1403 23.4911C21.3046 23.3298 21.435 23.1383 21.5239 22.9275C21.6129 22.7167 21.6586 22.4907 21.6586 22.2626V3.40979C21.6586 3.18163 21.6129 2.9557 21.5239 2.74491C21.435 2.53412 21.3046 2.34259 21.1403 2.18126C20.976 2.01992 20.7809 1.89195 20.5662 1.80463C20.3514 1.71732 20.1213 1.67238 19.8889 1.67238ZM17.2135 3.50027C17.2325 3.66644 17.3132 3.81991 17.4401 3.93136C17.5671 4.04281 17.7315 4.10442 17.9018 4.10442C18.0721 4.10442 18.2364 4.04281 18.3634 3.93136C18.4904 3.81991 18.5711 3.66644 18.5901 3.50027C18.7412 3.63639 18.8469 3.81413 18.8933 4.01023C18.9398 4.20633 18.9249 4.41164 18.8505 4.59925C18.7761 4.78687 18.6457 4.94806 18.4764 5.06171C18.3071 5.17535 18.1068 5.23616 17.9018 5.23616C17.6967 5.23616 17.4964 5.17535 17.3271 5.06171C17.1578 4.94806 17.0275 4.78687 16.9531 4.59925C16.8787 4.41164 16.8637 4.20633 16.9102 4.01023C16.9567 3.81413 17.0624 3.63639 17.2135 3.50027ZM6.16177 3.50027C6.18076 3.66644 6.26146 3.81991 6.38843 3.93136C6.5154 4.04281 6.67975 4.10442 6.85007 4.10442C7.02039 4.10442 7.18474 4.04281 7.31171 3.93136C7.43869 3.81991 7.51938 3.66644 7.53837 3.50027C7.689 3.63631 7.79429 3.81382 7.84047 4.00958C7.88665 4.20534 7.87157 4.41022 7.7972 4.59743C7.72282 4.78463 7.59263 4.94543 7.42364 5.0588C7.25465 5.17217 7.05474 5.23283 6.85007 5.23283C6.6454 5.23283 6.44549 5.17217 6.2765 5.0588C6.10751 4.94543 5.97732 4.78463 5.90295 4.59743C5.82858 4.41022 5.81349 4.20534 5.85967 4.00958C5.90585 3.81382 6.01114 3.63631 6.16177 3.50027Z" fill="#252525"/>
<path d="M19.4569 1.24828H4.1127C3.88018 1.24809 3.6499 1.29289 3.43502 1.38012C3.22015 1.46735 3.02488 1.5953 2.8604 1.75665C2.69591 1.91801 2.56543 2.1096 2.4764 2.32048C2.38738 2.53137 2.34155 2.75741 2.34155 2.98569V21.8385C2.34155 22.2993 2.528 22.7412 2.85989 23.067C3.19177 23.3929 3.64191 23.5759 4.11126 23.5759H19.4569C19.9263 23.5759 20.3764 23.3929 20.7083 23.067C21.0402 22.7412 21.2266 22.2993 21.2266 21.8385V2.98569C21.2266 2.75753 21.1809 2.5316 21.0919 2.32081C21.003 2.11002 20.8726 1.91849 20.7083 1.75715C20.544 1.59582 20.3489 1.46784 20.1342 1.38053C19.9195 1.29322 19.6893 1.24828 19.4569 1.24828ZM6.41808 4.80933C6.21673 4.80933 6.0199 4.75071 5.85248 4.64089C5.68507 4.53107 5.55458 4.37497 5.47752 4.19234C5.40047 4.00971 5.38031 3.80875 5.41959 3.61487C5.45887 3.421 5.55583 3.24291 5.69821 3.10313C5.84059 2.96335 6.02199 2.86816 6.21947 2.8296C6.41695 2.79103 6.62165 2.81083 6.80767 2.88647C6.9937 2.96212 7.1527 3.09022 7.26456 3.25459C7.37643 3.41895 7.43613 3.61219 7.43613 3.80986C7.43632 3.94117 7.41012 4.07122 7.35903 4.19256C7.30793 4.31391 7.23295 4.42416 7.13838 4.51701C7.0438 4.60985 6.9315 4.68347 6.8079 4.73363C6.6843 4.78379 6.55183 4.80952 6.41808 4.80933ZM17.4698 4.80933C17.2684 4.80961 17.0714 4.75123 16.9038 4.64158C16.7362 4.53193 16.6055 4.37593 16.5282 4.19332C16.4509 4.01072 16.4306 3.80971 16.4697 3.61574C16.5088 3.42177 16.6056 3.24355 16.748 3.10363C16.8903 2.96371 17.0717 2.86838 17.2692 2.8297C17.4667 2.79102 17.6715 2.81073 17.8576 2.88634C18.0437 2.96194 18.2028 3.09005 18.3147 3.25444C18.4266 3.41883 18.4864 3.61213 18.4864 3.80986C18.4864 4.07469 18.3793 4.3287 18.1887 4.5161C17.9981 4.70349 17.7395 4.80896 17.4698 4.80933Z" fill="white"/>
<path d="M19.4569 1.24828H4.1127C3.88018 1.24809 3.6499 1.29289 3.43502 1.38012C3.22015 1.46735 3.02488 1.5953 2.8604 1.75665C2.69591 1.91801 2.56543 2.1096 2.4764 2.32048C2.38738 2.53137 2.34155 2.75741 2.34155 2.98569V6.13253H21.2266V2.98569C21.2266 2.75753 21.1809 2.5316 21.0919 2.32081C21.003 2.11002 20.8726 1.91849 20.7083 1.75715C20.544 1.59582 20.3489 1.46784 20.1342 1.38053C19.9195 1.29322 19.6893 1.24828 19.4569 1.24828ZM6.41808 4.80933C6.21673 4.80933 6.0199 4.75071 5.85248 4.64089C5.68507 4.53107 5.55458 4.37497 5.47752 4.19234C5.40047 4.00971 5.38031 3.80875 5.41959 3.61487C5.45887 3.421 5.55583 3.24291 5.69821 3.10313C5.84059 2.96335 6.02199 2.86816 6.21947 2.8296C6.41695 2.79103 6.62165 2.81083 6.80767 2.88647C6.9937 2.96212 7.1527 3.09022 7.26456 3.25459C7.37643 3.41895 7.43613 3.61219 7.43613 3.80986C7.43632 3.94117 7.41012 4.07122 7.35903 4.19256C7.30793 4.31391 7.23295 4.42416 7.13838 4.51701C7.0438 4.60985 6.9315 4.68347 6.8079 4.73363C6.6843 4.78379 6.55183 4.80952 6.41808 4.80933ZM17.4698 4.80933C17.2684 4.80961 17.0714 4.75123 16.9038 4.64158C16.7362 4.53193 16.6055 4.37593 16.5282 4.19332C16.4509 4.01072 16.4306 3.80971 16.4697 3.61574C16.5088 3.42177 16.6056 3.24355 16.748 3.10363C16.8903 2.96371 17.0717 2.86838 17.2692 2.8297C17.4667 2.79102 17.6715 2.81073 17.8576 2.88634C18.0437 2.96194 18.2028 3.09005 18.3147 3.25444C18.4266 3.41883 18.4864 3.61213 18.4864 3.80986C18.4864 4.07469 18.3793 4.3287 18.1887 4.5161C17.9981 4.70349 17.7395 4.80896 17.4698 4.80933Z" fill="#20BBB1"/>
<path d="M21.2252 6.01944H2.34299V7.7413H21.2252V6.01944Z" fill="#088478"/>
<path d="M6.41808 2.37215C6.1281 2.37215 5.84463 2.45659 5.60353 2.61479C5.36244 2.77298 5.17455 2.99783 5.06365 3.26087C4.95274 3.52392 4.92379 3.81335 4.98047 4.09256C5.03715 4.37176 5.17691 4.62818 5.38206 4.82939C5.58721 5.0306 5.84854 5.16755 6.13299 5.22292C6.41743 5.27829 6.71222 5.24959 6.98005 5.14045C7.24788 5.03131 7.47672 4.84663 7.63761 4.60978C7.79851 4.37293 7.88425 4.09456 7.88396 3.80986C7.88396 3.62094 7.84603 3.43387 7.77235 3.25935C7.69866 3.08482 7.59066 2.92627 7.45453 2.79275C7.31839 2.65923 7.15678 2.55336 6.97894 2.48119C6.8011 2.40902 6.61051 2.37197 6.41808 2.37215ZM6.41808 4.80933C6.21673 4.80933 6.0199 4.75071 5.85248 4.64089C5.68507 4.53107 5.55458 4.37497 5.47752 4.19234C5.40047 4.00971 5.38031 3.80875 5.41959 3.61487C5.45887 3.421 5.55583 3.24291 5.69821 3.10313C5.84059 2.96335 6.02199 2.86816 6.21947 2.8296C6.41695 2.79103 6.62165 2.81083 6.80767 2.88647C6.9937 2.96212 7.1527 3.09022 7.26456 3.25459C7.37643 3.41895 7.43613 3.61219 7.43613 3.80986C7.43632 3.94117 7.41012 4.07122 7.35903 4.19256C7.30793 4.31391 7.23295 4.42416 7.13838 4.51701C7.0438 4.60985 6.9315 4.68347 6.8079 4.73363C6.6843 4.78379 6.55183 4.80952 6.41808 4.80933Z" fill="#088478"/>
<path d="M17.4698 2.37215C17.1797 2.37187 16.8961 2.45607 16.6548 2.6141C16.4136 2.77212 16.2254 2.99687 16.1143 3.25989C16.0032 3.52292 15.974 3.81239 16.0306 4.09169C16.0871 4.37098 16.2267 4.62754 16.4318 4.82889C16.6369 5.03024 16.8982 5.16733 17.1827 5.22281C17.4672 5.2783 17.7621 5.24968 18.03 5.14058C18.2979 5.03148 18.5268 4.84681 18.6878 4.60993C18.8487 4.37305 18.9345 4.09461 18.9342 3.80986C18.9342 3.42856 18.7799 3.06287 18.5053 2.79325C18.2307 2.52362 17.8582 2.37215 17.4698 2.37215ZM17.4698 4.80933C17.2684 4.80961 17.0714 4.75123 16.9038 4.64158C16.7362 4.53193 16.6055 4.37593 16.5282 4.19332C16.4509 4.01072 16.4306 3.80971 16.4697 3.61574C16.5088 3.42177 16.6056 3.24355 16.748 3.10363C16.8903 2.96371 17.0717 2.86838 17.2692 2.8297C17.4667 2.79102 17.6715 2.81073 17.8576 2.88634C18.0437 2.96194 18.2028 3.09005 18.3147 3.25444C18.4266 3.41883 18.4864 3.61213 18.4864 3.80986C18.4864 4.07469 18.3793 4.3287 18.1887 4.5161C17.9981 4.70349 17.7395 4.80896 17.4698 4.80933Z" fill="#088478"/>
<path d="M7.11646 2.99134C7.11608 3.17294 7.04233 3.34697 6.9114 3.47525C6.78047 3.60352 6.60306 3.67556 6.41808 3.67556C6.32656 3.67556 6.23593 3.65786 6.15137 3.62348C6.06682 3.58909 5.98999 3.53869 5.92527 3.47516C5.86055 3.41162 5.80922 3.3362 5.77419 3.25318C5.73917 3.17017 5.72114 3.0812 5.72114 2.99134V0.684222C5.72114 0.502756 5.79457 0.328721 5.92527 0.200405C6.05597 0.0720886 6.23324 1.46056e-06 6.41808 1.46056e-06C6.50973 -0.000184432 6.60051 0.017376 6.68523 0.0516781C6.76996 0.0859801 6.84696 0.13635 6.91183 0.199904C6.9767 0.263459 7.02816 0.338949 7.06327 0.422054C7.09839 0.50516 7.11646 0.59425 7.11646 0.684222V2.99134Z" fill="#088478"/>
<path d="M18.1667 2.99134C18.1667 3.0812 18.1487 3.17017 18.1137 3.25318C18.0787 3.3362 18.0273 3.41162 17.9626 3.47516C17.8979 3.53869 17.8211 3.58909 17.7365 3.62348C17.6519 3.65786 17.5613 3.67556 17.4698 3.67556C17.2848 3.67556 17.1074 3.60352 16.9765 3.47525C16.8455 3.34697 16.7718 3.17294 16.7714 2.99134V0.684222C16.7714 0.59425 16.7895 0.50516 16.8246 0.422054C16.8597 0.338949 16.9112 0.263459 16.976 0.199904C17.0409 0.13635 17.1179 0.0859801 17.2026 0.0516781C17.2874 0.017376 17.3781 -0.000184432 17.4698 1.46056e-06C17.6546 1.46056e-06 17.8319 0.0720886 17.9626 0.200405C18.0933 0.328721 18.1667 0.502756 18.1667 0.684222V2.99134Z" fill="#088478"/>
<path d="M11.193 10.1855H8.63706V12.6948H11.193V10.1855Z" fill="#C6C6C5"/>
<path d="M14.9311 10.1855H12.3752V12.6948H14.9311V10.1855Z" fill="#C6C6C5"/>
<path d="M18.6693 10.1855H16.1133V12.6948H18.6693V10.1855Z" fill="#C6C6C5"/>
<path d="M7.45629 14.2442H4.90036V16.7535H7.45629V14.2442Z" fill="#C6C6C5"/>
<path d="M11.193 14.2442H8.63706V16.7535H11.193V14.2442Z" fill="#C6C6C5"/>
<path d="M14.9311 14.2442H12.3752V16.7535H14.9311V14.2442Z" fill="#42FFFF"/>
<path d="M18.6693 14.2442H16.1133V16.7535H18.6693V14.2442Z" fill="#C6C6C5"/>
<path d="M7.45629 18.3029H4.90036V20.8122H7.45629V18.3029Z" fill="#C6C6C5"/>
<path d="M11.193 18.3029H8.63706V20.8122H11.193V18.3029Z" fill="#C6C6C5"/>
<path d="M14.9311 18.3029H12.3752V20.8122H14.9311V18.3029Z" fill="#C6C6C5"/>
<path d="M18.6693 18.3029H16.1133V20.8122H18.6693V18.3029Z" fill="#C6C6C5"/>
</svg>
