<svg width="24" height="24" viewBox="0 0 24 24" fill="none" xmlns="http://www.w3.org/2000/svg">
<path d="M12 23C18.0751 23 23 18.0751 23 12C23 5.92487 18.0751 1 12 1C5.92487 1 1 5.92487 1 12C1 18.0751 5.92487 23 12 23Z" fill="white"/>
<path d="M14.1155 17.7073C10.7581 18.8264 7.51712 19.3732 4.81494 19.3812C7.51871 22.077 11.5122 23.0191 15.1358 21.8155C18.8009 20.5944 21.3404 17.4649 22.0483 13.8477C19.9264 15.3207 17.1987 16.679 14.1139 17.7073H14.1155Z" fill="#CF001C"/>
<path d="M14.2303 14.0884L13.9561 14.7516H14.5045L14.2303 14.0884Z" fill="#CF001C"/>
<path d="M6.80453 14.0199H6.43945V15.0944H6.80453C7.10105 15.1183 7.3609 14.8967 7.38482 14.6002C7.40873 14.3036 7.18713 14.0438 6.89061 14.0199C6.86192 14.0183 6.83322 14.0183 6.80293 14.0199H6.80453Z" fill="#CF001C"/>
<path d="M10.4441 6.12376C13.607 5.0955 16.6694 4.55029 19.2951 4.4626C15.0083 0.508982 8.32857 0.779996 4.37654 5.06681C3.01031 6.54782 2.09683 8.39072 1.74292 10.3755C3.99075 8.7542 7.0006 7.24289 10.4441 6.12376Z" fill="#CF001C"/>
<path d="M15.9727 16.3219C18.1487 15.6157 20.2292 14.6416 22.1661 13.4252C22.3686 11.8661 22.2251 10.2799 21.7469 8.78291C21.2718 7.27957 20.4683 5.90059 19.3906 4.74957C17.1221 4.93131 14.8838 5.39363 12.7285 6.12537C10.7883 6.75986 8.92309 7.60001 7.16309 8.63305H9.23236V9.43015H7.0228V10.3628H8.9741V11.1359H7.0228V12.1291H9.31048V12.9262H6.05671V9.33769C3.15526 11.3193 1.5499 13.5496 2.10309 15.2888C2.99903 18.1058 9.20845 18.5681 15.9727 16.3219ZM11.4611 15.5264H11.0705V13.7919H11.4611V15.5264ZM13.2657 14.1187H12.7253V15.5264H12.3347V14.1203H11.7942V13.7935H13.2673V14.1203L13.2657 14.1187ZM16.7219 15.5264H15.4832V13.7919H15.8738V15.1996H16.7219V15.5264ZM14.125 8.63305H17.7869V9.44291H16.4413V12.9231H15.4689V9.44291H14.1234V8.63305H14.125ZM14.4295 13.7935L15.1851 15.528H14.7738L14.624 15.1565H13.8396L13.6898 15.528H13.288L14.0421 13.7935H14.4295ZM9.94657 9.6358C10.1427 9.30102 10.428 9.02682 10.7724 8.84508C11.139 8.65218 11.5471 8.55334 11.9616 8.55972C12.3044 8.55493 12.6456 8.6203 12.9644 8.74943C13.2561 8.87059 13.516 9.0603 13.72 9.30102L13.0951 9.88928C12.8209 9.57682 12.424 9.40146 12.0079 9.40465C11.7592 9.39986 11.5121 9.45885 11.2921 9.57522C11.0864 9.68682 10.9174 9.8558 10.8058 10.0599C10.5731 10.5078 10.5731 11.0403 10.8058 11.4883C10.9174 11.6923 11.0848 11.8613 11.2889 11.9761C11.5041 12.0957 11.748 12.1562 11.9935 12.1515C12.2566 12.1562 12.518 12.0925 12.7492 11.9681V10.7103H13.6371V12.4528C13.3996 12.6329 13.1302 12.77 12.8448 12.8577C12.5515 12.9502 12.2454 12.998 11.9377 12.998C11.528 13.0044 11.1231 12.9071 10.7612 12.7126C10.42 12.5293 10.1363 12.2551 9.94178 11.9219C9.54483 11.2109 9.54483 10.3452 9.94178 9.63421L9.94657 9.6358ZM9.10005 14.1984C9.17816 14.0629 9.29454 13.9529 9.43164 13.8796C9.57831 13.8015 9.7441 13.7616 9.9099 13.7648C10.0486 13.7632 10.1857 13.7887 10.3132 13.8413C10.4312 13.8907 10.5348 13.9673 10.6177 14.0645L10.3658 14.302C10.2558 14.1761 10.0964 14.1044 9.92903 14.1059C9.8286 14.1044 9.72976 14.1283 9.64207 14.1745C9.55918 14.2191 9.49222 14.2877 9.44599 14.3706C9.35193 14.5523 9.35193 14.7659 9.44599 14.9477C9.49062 15.0306 9.55918 15.0991 9.64048 15.1454C9.72657 15.1932 9.82541 15.2171 9.92425 15.2155C10.0311 15.2171 10.1347 15.1916 10.2287 15.1406V14.632H10.5858V15.3351C10.4902 15.4084 10.3818 15.4642 10.267 15.4993C10.149 15.5375 10.0263 15.5567 9.90193 15.5567C9.73613 15.5599 9.57352 15.52 9.42845 15.4419C9.29135 15.3686 9.17657 15.257 9.09845 15.123C8.93903 14.8361 8.93903 14.4854 9.09845 14.1984H9.10005ZM8.17381 13.7935H8.56439V15.528H8.17381V13.7935ZM7.64135 15.1167C7.56323 15.2474 7.44845 15.3526 7.31294 15.4196C7.16149 15.4945 6.9941 15.5312 6.82671 15.528H6.05671V13.7935H6.82512C6.9941 13.7903 7.1599 13.827 7.31135 13.9019C7.44686 13.9688 7.56164 14.0741 7.63976 14.2048C7.79599 14.4886 7.79599 14.8329 7.63976 15.1167H7.64135Z" fill="#CF001C"/>
</svg>
