<svg width="24" height="24" viewBox="0 0 24 24" fill="none" xmlns="http://www.w3.org/2000/svg">
<path fill-rule="evenodd" clip-rule="evenodd" d="M18.8684 11.1595L17.5257 21.4912C17.4879 21.7973 17.2395 21.996 16.8818 21.996H11.4018C11.0441 21.996 10.8631 21.8291 10.8631 21.5587V21.4912L12.2141 10.9926C12.2857 10.5911 12.353 10.1935 12.353 9.79204C12.353 9.19178 12.2857 8.81811 12.071 8.55177C11.789 8.18605 11.2924 8.05486 10.619 8.05486C9.66357 8.05486 8.38828 8.22182 8.38828 8.22182L6.65422 21.4951C6.62055 21.8012 6.37644 22 6.01868 22H0.526109C0.176772 22 0 21.833 0 21.5627V21.4951L1.9445 6.57608C2.08339 5.37158 3.39656 5.03766 5.66093 4.63616C7.42865 4.30224 9.90347 4.00012 12.1384 4.00012C14.5501 4.00012 16.4609 4.23466 17.7025 5.14102C18.62 5.77308 19.1504 6.77881 19.1504 8.34903C19.1504 9.25538 18.9694 10.2532 18.8684 11.1595Z" fill="#354564"/>
<path fill-rule="evenodd" clip-rule="evenodd" d="M20.718 11.1594L19.3754 21.491C19.3375 21.7971 19.0892 21.9959 18.7314 21.9959H13.2515C12.8937 21.9959 12.7127 21.8289 12.7127 21.5586V21.491L14.0638 10.9924C14.1353 10.5909 14.2027 10.1934 14.2027 9.79192C14.2027 9.19166 14.1353 8.81799 13.9207 8.55165C13.6387 8.18592 13.142 8.05474 12.4686 8.05474C11.5132 8.05474 10.2379 8.2217 10.2379 8.2217L8.50387 21.495C8.4702 21.8011 8.22608 21.9999 7.86833 21.9999H2.37575C2.02642 21.9999 1.84965 21.8329 1.84965 21.5626V21.495L3.79414 6.57595C3.93304 5.37146 5.2462 5.03754 7.51058 4.63604C9.2783 4.30212 11.7531 4 13.988 4C16.3997 4 18.3105 4.23454 19.5522 5.14089C20.4697 5.77296 21 6.77869 21 8.34891C21 9.25526 20.819 10.253 20.718 11.1594Z" fill="#19CAB7"/>
<path d="M17.8505 4.25524C17.9305 4.11875 18.1104 4.08104 18.2379 4.17463C18.454 4.33327 18.8664 4.636 19.6535 5.21372C19.6666 5.2233 19.6792 5.23444 19.6903 5.24621L20.4007 6L20.8756 7.14599L22.5742 7.31169C22.3176 7.47738 23.0292 7.37748 22.5742 7.31169L22.1317 10.4536L22.2301 12.9692C21.5479 12.6495 21.1478 12.462 20.9133 12.3521C20.7498 12.2755 20.5593 12.3803 20.5361 12.5594L20.4828 12.9692L16.5 14.5C16.0956 14.6966 15.4421 13.9772 15.4966 13.5231C15.4984 13.5076 15.5 13.4921 15.5 13.4765V10.5L13 7.31169C12.678 6.99066 12.9872 6.03884 13.4704 6.00115C13.49 5.99963 13.5097 5.99783 13.5288 5.99354L17.3319 5.14089L17.8505 4.25524Z" fill="#0F2247"/>
<path d="M23.9823 7.08617V8.11872L22.1073 10.1353L22.5161 12.5799C22.564 12.866 22.2714 13.0884 22.0089 12.9654L19.4987 11.7891L17.0063 12.9633C16.7438 13.087 16.4505 12.8646 16.4984 12.5782L16.9069 10.1353L15.0021 8.11872L15.0021 7.08617H23.9823Z" fill="#FF8C00"/>
<path d="M19.171 4.18726C19.3053 3.94153 19.6561 3.93664 19.7972 4.17853L21.1008 6.41424L23.6911 6.78705C23.9836 6.82915 24.1034 7.18675 23.8954 7.39681L21.9845 9.3266L22.4099 11.8982C22.4575 12.1862 22.1607 12.4083 21.8982 12.2809L19.4987 11.1172L17.1017 12.277C16.8373 12.405 16.5395 12.1789 16.5912 11.8895L17.049 9.3266L15.1069 7.39967C14.8956 7.1901 15.0153 6.82909 15.3098 6.78752L17.9542 6.41424L19.171 4.18726Z" fill="#FDF349"/>
</svg>
