<svg width="24" height="24" viewBox="0 0 24 24" fill="none" xmlns="http://www.w3.org/2000/svg">
<path d="M23.9527 8.22978V10.9833L18.9528 16.3608L20.043 22.8797C20.1706 23.6426 19.3903 24.2356 18.6904 23.9076L11.9965 20.7708L5.35011 23.9022C4.65003 24.232 3.868 23.639 3.99574 22.8751L5.08518 16.3608L0.00567993 10.9833L0.0055759 8.22978H23.9527Z" fill="#FF8C00"/>
<path d="M11.1227 0.499351C11.4807 -0.155924 12.4163 -0.168965 12.7925 0.476077L16.2689 6.43798L23.1764 7.43214C23.9563 7.5444 24.2757 8.49799 23.721 9.05816L18.6253 14.2043L19.7596 21.0618C19.8867 21.83 19.0953 22.422 18.3952 22.0825L11.9965 18.9791L5.60463 22.072C4.89954 22.4132 4.10524 21.8104 4.24309 21.0388L5.46396 14.2043L0.284973 9.06578C-0.278274 8.50694 0.0409267 7.54424 0.826224 7.43338L7.87784 6.43798L11.1227 0.499351Z" fill="#FDF349"/>
</svg>
