<svg width="24" height="24" viewBox="0 0 24 24" fill="none" xmlns="http://www.w3.org/2000/svg">
<path d="M22.2437 6.56642L12.4546 12.5249L18.1818 2.58552C19.8472 3.55074 21.2439 4.91959 22.2437 6.56642Z" fill="#05193F"/>
<path d="M23.9091 12.5249L12.4546 12.5249L22.2437 6.56642C23.3364 8.36085 23.9128 10.4229 23.9091 12.5249Z" fill="#20B8AF"/>
<path d="M22.6311 17.7942C21.6223 19.7435 20.0787 21.3636 18.1818 22.4637L12.4546 12.5249L22.6311 17.7942Z" fill="#20B8AF"/>
<path d="M18.1818 22.4637C16.4416 23.4733 14.4655 24.0034 12.4546 24V12.5249L18.1818 22.4637Z" fill="#05193F"/>
<path d="M12.4546 12.5249L6.72729 22.4637C5.0626 21.4976 3.66612 20.1289 2.66541 18.4828L12.4546 12.5249Z" fill="#05193F"/>
<path d="M12.4546 12.5249L2.66289 18.4828C1.57212 16.6879 0.996731 14.6263 1.00002 12.5249L12.4546 12.5249Z" fill="#20B8AF"/>
<path d="M12.4546 12.5249L2.27738 7.25693C3.28504 5.30608 4.82921 3.68507 6.72732 2.58552L12.4546 12.5249Z" fill="#20B8AF"/>
<path d="M12.4546 1.04982L12.4546 12.5249L6.72732 2.58552C8.46748 1.5758 10.4436 1.04589 12.4546 1.04982Z" fill="#05193F"/>
<path d="M23.9091 12.5249C23.9122 14.3587 23.4738 16.1663 22.6311 17.7942L12.4546 12.5249L23.9091 12.5249Z" fill="#05193F"/>
<path d="M12.4546 12.5249L1.00002 12.5249C0.997015 10.6916 1.43522 8.88459 2.27738 7.25693L12.4546 12.5249Z" fill="#05193F"/>
<path d="M18.1818 2.58552L12.4546 12.5249L12.4546 1.04982C14.4655 1.04622 16.4415 1.5761 18.1818 2.58552Z" fill="#20B8AF"/>
<path d="M12.4546 12.5249V24C10.4435 24.0037 8.4674 23.4736 6.72729 22.4637L12.4546 12.5249Z" fill="#20B8AF"/>
<path d="M14.244 12.9552C14.4869 11.9736 13.8894 10.9807 12.9096 10.7374C11.9298 10.4941 10.9386 11.0926 10.6957 12.0742C10.4529 13.0558 11.0503 14.0488 12.0302 14.2921C13.01 14.5354 14.0012 13.9369 14.244 12.9552Z" fill="white"/>
<path d="M12.4546 1.04982C10.9503 1.04982 9.46086 1.34669 8.07113 1.92337C6.68141 2.50004 5.41867 3.34529 4.35502 4.41085C3.29137 5.47641 2.44764 6.74141 1.872 8.13363C1.29636 9.52585 1.00002 11.018 1.00002 12.5249C1.00002 14.0319 1.29636 15.524 1.872 16.9163C2.44764 18.3085 3.29137 19.5735 4.35502 20.6391C5.41867 21.7046 6.68141 22.5499 8.07113 23.1265C9.46086 23.7032 10.9503 24 12.4546 24C18.7805 24 23.9091 18.8622 23.9091 12.5249C23.9091 9.48155 22.7023 6.56284 20.5541 4.41085C18.406 2.25886 15.4925 1.04982 12.4546 1.04982ZM12.4546 22.0218C10.5796 22.0218 8.74678 21.4648 7.18782 20.4212C5.62886 19.3777 4.41381 17.8944 3.69633 16.1591C2.97884 14.4237 2.79114 12.5142 3.15698 10.672C3.52281 8.82976 4.42573 7.13758 5.75157 5.80945C7.07741 4.48132 8.76661 3.57689 10.6056 3.21053C12.4445 2.84416 14.3506 3.03232 16.0828 3.75121C17.815 4.4701 19.2955 5.68742 20.3371 7.24925C21.3786 8.81107 21.9345 10.6472 21.9344 12.5256C21.9343 13.7726 21.689 15.0075 21.2126 16.1596C20.7361 17.3117 20.0378 18.3585 19.1576 19.2402C18.2773 20.122 17.2323 20.8214 16.0822 21.2985C14.9321 21.7757 13.6994 22.0219 12.4546 22.0218Z" fill="#3DE3E3"/>
<path d="M12.4665 23.466C6.44432 23.466 1.54444 18.5579 1.54444 12.5249C1.54444 6.49191 6.44432 1.58323 12.4665 1.58323C18.4887 1.58323 23.3886 6.49129 23.3886 12.5249C23.3886 18.5586 18.4887 23.466 12.4665 23.466ZM12.4665 2.46593C6.92987 2.46593 2.42556 6.97833 2.42556 12.5249C2.42556 18.0715 6.92987 22.5833 12.4665 22.5833C18.0032 22.5833 22.5056 18.0696 22.5056 12.5249C22.5056 6.98021 18.0063 2.46593 12.4665 2.46593Z" fill="#03E8EA"/>
<path d="M10.2337 1.26706C10.2337 1.29398 10.2268 1.31903 10.2255 1.3472C10.1818 2.27434 11.0648 2.62304 11.8422 2.62304V3.04999C12.0446 3.03684 12.2484 3.02808 12.4546 3.02808C12.7764 3.02799 13.098 3.04408 13.4182 3.07628V2.62304C14.1956 2.62304 15.0786 2.27434 15.0354 1.3472C13.4585 0.981623 11.8222 0.954953 10.2343 1.26894L10.2337 1.26706Z" fill="#DCDFF5"/>
<path d="M15.0676 1.19446C15.0139 0.0488273 13.9815 0 12.663 0C11.3444 0 10.3121 0.0488273 10.2577 1.19446C10.2146 2.1216 11.0976 2.46968 11.875 2.46968V4.53557H11.1469L12.663 6.47625L14.1784 4.53557H13.4535V2.46968C14.2277 2.46968 15.1113 2.1216 15.0676 1.19446Z" fill="white"/>
</svg>
