<svg width="24" height="25" viewBox="0 0 24 25" fill="none" xmlns="http://www.w3.org/2000/svg">
<path fill-rule="evenodd" clip-rule="evenodd" d="M17.5891 15.3863L16.3393 24.553C16.3064 24.8272 16.0696 25 15.7407 25H10.6298C10.2943 25 10.1298 24.851 10.1298 24.6126V24.553L11.3928 15.2373C11.4586 14.8796 11.5243 14.528 11.5243 14.1704C11.5243 13.6399 11.4586 13.3062 11.2612 13.0678C10.9981 12.7459 10.5377 12.6267 9.90619 12.6267C9.01161 12.6267 7.82761 12.7757 7.82761 12.7757L6.20946 24.553C6.17657 24.8272 5.95293 25 5.61746 25H0.493336C0.164445 25 0 24.851 0 24.6126V24.553L1.79574 11.3214C1.9273 10.2546 3.15078 9.95654 5.26226 9.59893C6.91329 9.30092 9.2221 9.03271 11.3073 9.03271C13.5569 9.03271 15.3395 9.24132 16.4972 10.0459C17.3523 10.6062 17.8456 11.5002 17.8456 12.8949C17.8522 13.6995 17.6812 14.5816 17.5891 15.3863Z" fill="#404756"/>
<path fill-rule="evenodd" clip-rule="evenodd" d="M19.5608 15.3863L18.311 24.553C18.2781 24.8272 18.0413 25 17.7124 25H12.6014C12.266 25 12.1015 24.851 12.1015 24.6126V24.553L13.3645 15.2373C13.4302 14.8796 13.496 14.528 13.496 14.1704C13.496 13.6399 13.4302 13.3062 13.2329 13.0678C12.9698 12.7459 12.5093 12.6267 11.8779 12.6267C10.9833 12.6267 9.79929 12.7757 9.79929 12.7757L8.18114 24.553C8.14825 24.8272 7.92461 25 7.58914 25H2.46502C2.13613 25 1.97168 24.851 1.97168 24.6126V24.553L3.76742 11.3214C3.89898 10.2546 5.12246 9.95654 7.23393 9.59893C8.88497 9.30092 11.1938 9.03271 13.279 9.03271C15.5286 9.03271 17.3112 9.24132 18.4688 10.0459C19.324 10.6062 19.8173 11.5002 19.8173 12.8949C19.8239 13.6995 19.6529 14.5816 19.5608 15.3863Z" fill="url(#paint0_linear)"/>
<g clip-path="url(#clip0)">
<path d="M19.6261 10.963L11.5946 8.16392C11.2249 8.03509 10.8229 8.22432 10.6967 8.5866C10.5704 8.94888 10.7677 9.34696 11.1374 9.4758L19.1689 12.2749C19.5385 12.4037 19.9405 12.2145 20.0668 11.8522C20.193 11.49 19.9957 11.0919 19.6261 10.963Z" fill="#FFD241"/>
<path d="M19.0956 7.10047L17.5532 3.98829L14.4106 5.46765L12.8682 2.35547L11.3822 6.61905C11.256 6.98133 11.4533 7.37941 11.8229 7.50825L19.8544 10.3074C20.2241 10.4362 20.6261 10.247 20.7523 9.88468L22.2382 5.6211L19.0956 7.10047Z" fill="#FFD241"/>
<path d="M19.0956 7.10046L17.5532 3.98828L15.8387 8.9078L19.8544 10.3074C20.2241 10.4362 20.6261 10.2469 20.7523 9.88468L22.2383 5.6211L19.0956 7.10046Z" fill="#FAA037"/>
<path d="M20.0668 11.8522C19.9405 12.2145 19.5386 12.4037 19.1689 12.2749L15.1531 10.8753L15.6104 9.56348L19.6261 10.963C19.9958 11.0919 20.1931 11.4899 20.0668 11.8522Z" fill="#FAA037"/>
<path d="M11.8232 7.5083L15.839 8.90786L15.6104 9.56379L11.5946 8.16424L11.8232 7.5083Z" fill="#FAA037"/>
<path d="M15.8389 8.90771L19.8546 10.3073L19.626 10.9632L15.6103 9.56365L15.8389 8.90771Z" fill="#F57328"/>
<path d="M17.4343 4.31477C17.9888 4.50801 18.5918 4.22415 18.7812 3.68075C18.9706 3.13736 18.6746 2.5402 18.1201 2.34696C17.5657 2.15372 16.9627 2.43758 16.7733 2.98097C16.5839 3.52437 16.8799 4.12153 17.4343 4.31477Z" fill="#FAA037"/>
<path d="M22.1243 5.94904C22.6787 6.14228 23.2817 5.85842 23.4711 5.31503C23.6605 4.77163 23.3645 4.17448 22.8101 3.98124C22.2556 3.788 21.6526 4.07186 21.4632 4.61525C21.2739 5.15865 21.5698 5.75581 22.1243 5.94904Z" fill="#FAA037"/>
<path d="M12.7542 2.68342C13.3086 2.87666 13.9116 2.5928 14.101 2.0494C14.2904 1.50601 13.9944 0.90885 13.44 0.715612C12.8855 0.522373 12.2825 0.806231 12.0931 1.34963C11.9037 1.89302 12.1997 2.49018 12.7542 2.68342Z" fill="#FAA037"/>
<path d="M13.0594 1.80893C13.3058 1.89481 13.5738 1.76865 13.658 1.52714C13.7422 1.28562 13.6106 1.02021 13.3642 0.93432C13.1177 0.848433 12.8497 0.974596 12.7656 1.21611C12.6814 1.45763 12.8129 1.72304 13.0594 1.80893Z" fill="#FFD241"/>
<path d="M17.7444 3.44174C17.9909 3.52763 18.2589 3.40146 18.343 3.15995C18.4272 2.91843 18.2957 2.65302 18.0492 2.56713C17.8028 2.48125 17.5348 2.60741 17.4506 2.84893C17.3664 3.09044 17.498 3.35585 17.7444 3.44174Z" fill="#FFD241"/>
<path d="M22.429 5.07455C22.6754 5.16044 22.9434 5.03428 23.0276 4.79276C23.1118 4.55124 22.9802 4.28583 22.7338 4.19994C22.4874 4.11406 22.2194 4.24022 22.1352 4.48174C22.051 4.72325 22.1826 4.98867 22.429 5.07455Z" fill="#FFD241"/>
<path d="M16.5755 5.27105L15.6006 5.73C15.2499 5.89506 15.1052 6.31039 15.2773 6.65762L15.7558 7.62312C15.9279 7.97035 16.3516 8.11804 16.7023 7.95299L17.6772 7.49404C18.0279 7.32899 18.1726 6.91366 18.0005 6.56643L17.522 5.60093C17.3499 5.25365 16.9262 5.10597 16.5755 5.27105V5.27105Z" fill="#29A8AC"/>
</g>
<defs>
<linearGradient id="paint0_linear" x1="10.8946" y1="6.93493" x2="10.8946" y2="30.1766" gradientUnits="userSpaceOnUse">
<stop stop-color="#3FC4A4"/>
<stop offset="1" stop-color="#008F93"/>
</linearGradient>
<clipPath id="clip0">
<rect width="12.1588" height="9.39542" fill="white" transform="translate(12.4419) rotate(19.2143)"/>
</clipPath>
</defs>
</svg>
