<svg width="24" height="24" viewBox="0 0 24 24" fill="none" xmlns="http://www.w3.org/2000/svg">
<g clip-path="url(#clip0_803_86967)">
<path d="M19.9505 24.1437L5.26949 9.25787L7.31521 7.2799L24.1154 24.124L19.9505 24.1437Z" fill="#E4F4F4"/>
<path d="M9.36442 5.24519L24.1241 20.0389L24.1194 24.1309L7.31692 7.28798L9.36442 5.24519Z" fill="#CCE4E4"/>
<path d="M0.453177 2.94211C-0.25398 2.23081 -0.25062 1.08092 0.46068 0.373764C1.17198 -0.333393 2.32187 -0.330034 3.02902 0.381266L7.94411 5.32514C8.65126 6.03644 8.6479 7.18633 7.9366 7.89349C7.2253 8.60064 6.07541 8.59728 5.36826 7.88598L0.453177 2.94211Z" fill="#00B0B1"/>
<path d="M0.452402 2.94133C-0.254326 2.23046 -0.250188 1.08049 0.46068 0.373764C1.17155 -0.332964 2.32152 -0.330384 3.02825 0.380485C3.73498 1.09135 3.73084 2.24132 3.01997 2.94805C2.3091 3.65478 1.15913 3.6522 0.452402 2.94133Z" fill="#06D6A0"/>
<path d="M2.20166 10.2795L3.22465 11.3048L11.3056 3.31186L10.2479 2.25174L2.20166 10.2795Z" fill="#244460"/>
<path d="M5.26947 9.27107L6.2232 10.228L8.23333 8.22247L7.28514 7.26009L5.26947 9.27107Z" fill="#CCE4E4"/>
<path d="M7.28644 7.25605L8.23099 8.23321L10.2904 6.17405L9.36565 5.25112L7.28644 7.25605Z" fill="#A4C4CC"/>
<path d="M16.3363 12.2343L12.266 16.3593L10.0106 14.0839L14.1012 10.0065L16.3363 12.2343Z" fill="#AFC2D2" fill-opacity="0.5"/>
<path d="M16.3127 12.1991L12.2424 16.3241L9.98706 14.0488L14.0777 9.97136L16.3127 12.1991Z" fill="#94A9BB" fill-opacity="0.5"/>
<path d="M16.2738 12.1717L12.1996 16.285L9.98706 14.0488L14.0777 9.97136L16.2738 12.1717Z" fill="#94A9BB" fill-opacity="0.5"/>
<path d="M16.239 12.1323L12.137 16.2317L10.0169 14.0123L14.1447 9.96172L16.239 12.1323Z" fill="#7B99B1" fill-opacity="0.8"/>
<path d="M16.2045 12.0977L12.1 16.1985L9.95275 14.1164L14.0889 9.91956L16.2045 12.0977Z" fill="#6C88A0"/>
<path d="M16.1723 12.0546L12.0629 16.1561L10.028 14.0238L14.148 9.95374L16.1723 12.0546Z" fill="#5B758C"/>
<path d="M-0.138672 19.9856L14.7302 5.2875L16.7106 7.33096L-0.114258 24.1505L-0.138672 19.9856Z" fill="#E4F4F4"/>
<path d="M18.7476 9.37782L3.97095 24.1545H-0.121094L16.7025 7.33267L18.7476 9.37782Z" fill="#CCE4E4"/>
<path d="M21.0405 0.463936C21.7509 -0.244039 22.9008 -0.242001 23.6088 0.468486C24.3168 1.17897 24.3147 2.32886 23.6043 3.03684L18.666 7.9576C17.9556 8.66557 16.8057 8.66354 16.0977 7.95305C15.3897 7.24256 15.3917 6.09267 16.1022 5.3847L21.0405 0.463936Z" fill="#00B0B1"/>
<path d="M21.0412 0.46316C21.7513 -0.244385 22.9013 -0.24157 23.6088 0.468486C24.3164 1.17854 24.3151 2.32851 23.605 3.03606C22.895 3.7436 21.745 3.74079 21.0375 3.03073C20.3299 2.32068 20.3312 1.17071 21.0412 0.46316Z" fill="#06D6A0"/>
<path d="M13.7051 2.22085L12.6809 3.24502L20.6832 11.3168L21.7421 10.2579L13.7051 2.22085Z" fill="#244460"/>
<path d="M14.717 5.2875L13.7612 6.24234L15.769 8.25015L16.7303 7.30086L14.717 5.2875Z" fill="#CCE4E4"/>
<path d="M16.7344 7.30215L15.7583 8.24783L17.8198 10.3048L18.7417 9.37906L16.7344 7.30215Z" fill="#A4C4CC"/>
</g>
<defs>
<clipPath id="clip0_803_86967">
<rect width="24" height="24" fill="white"/>
</clipPath>
</defs>
</svg>
