<svg width="24" height="24" viewBox="0 0 24 24" fill="none" xmlns="http://www.w3.org/2000/svg">
<path fill-rule="evenodd" clip-rule="evenodd" d="M5.56323 1.28355C5.55763 1.30035 5.49836 1.3161 5.43146 1.31862C5.36465 1.32114 5.30984 1.33177 5.30968 1.34233C5.30936 1.36904 5.14503 1.44251 5.08422 1.44308C5.03989 1.44357 5.03965 1.4473 5.0826 1.47507C5.12344 1.50146 5.12133 1.50665 5.06953 1.50706C5.01326 1.50746 4.59385 1.913 4.60221 1.95887C4.61041 2.00393 4.5539 2.09031 4.52711 2.07375C4.51112 2.06385 4.49804 2.08504 4.49804 2.12084C4.49804 2.15656 4.47247 2.20495 4.44121 2.22825C4.40996 2.25163 4.37959 2.29247 4.37366 2.3191C4.36774 2.34573 4.34582 2.37837 4.32495 2.39168C4.30409 2.405 4.29962 2.41612 4.31505 2.41637C4.33047 2.41661 4.31951 2.4529 4.29069 2.4969C4.26187 2.54091 4.23824 2.60586 4.23824 2.64109C4.23824 2.67641 4.22363 2.71433 4.20577 2.72537C4.18791 2.73641 4.17329 2.78114 4.17329 2.82474C4.17329 2.86834 4.15868 2.90398 4.14082 2.90398C4.12296 2.90398 4.10834 2.94782 4.10834 3.00141C4.10834 3.05499 4.09373 3.09883 4.07587 3.09883C4.05801 3.09883 4.04339 3.14146 4.04339 3.19358C4.04339 3.24562 4.02959 3.29312 4.01262 3.29912C3.99573 3.30505 3.97836 3.38023 3.97406 3.46605C3.96967 3.55194 3.95425 3.62956 3.9398 3.63849C3.92534 3.64742 3.91349 3.72049 3.91349 3.80087C3.91349 3.88124 3.9005 3.93905 3.88467 3.92922C3.86884 3.9194 3.8565 3.92955 3.85731 3.95163C3.86543 4.17604 3.84269 4.46304 3.81809 4.44785C3.7995 4.43632 3.78651 4.73291 3.78481 5.20907C3.78286 5.72275 3.79325 5.98913 3.81517 5.98913C3.83523 5.98913 3.84854 6.09289 3.84854 6.24893C3.84854 6.40051 3.8621 6.50873 3.88102 6.50873C3.89888 6.50873 3.91349 6.58269 3.91349 6.67306C3.91349 6.7743 3.92591 6.82959 3.94597 6.81725C3.96586 6.80499 3.97844 6.8554 3.97844 6.94715C3.97844 7.03889 3.99102 7.08931 4.01092 7.07705C4.03811 7.06024 4.0619 7.20354 4.04721 7.29626C4.0451 7.30965 4.04704 7.3241 4.05151 7.32833C4.05598 7.33255 5.34565 7.34351 6.91745 7.35268L9.77527 7.36933L9.79167 22.6489H14.208L14.2244 7.36933L17.0578 7.36104C19.0159 7.35528 19.8913 7.34213 19.8913 7.3185C19.8913 7.29967 19.9062 7.29358 19.9246 7.30486C19.9429 7.31615 19.9558 7.31339 19.9533 7.29869C19.9394 7.21905 19.9599 7.05927 19.9822 7.07307C19.9965 7.08184 20.0118 7.03564 20.0162 6.97037C20.0206 6.90509 20.0352 6.84396 20.0486 6.83446C20.0621 6.82496 20.0772 6.75148 20.0822 6.67111C20.0872 6.59073 20.1047 6.51109 20.1212 6.49412C20.1376 6.47715 20.1514 6.33832 20.1516 6.1856C20.1519 5.99432 20.1619 5.92312 20.1836 5.95665C20.2044 5.98888 20.2152 5.75782 20.2156 5.27305C20.2159 4.73161 20.2055 4.52937 20.1755 4.49697C20.1424 4.46141 20.144 4.45833 20.1836 4.48049C20.2232 4.50266 20.2251 4.49884 20.1936 4.45987C20.1723 4.43356 20.1519 4.29969 20.1483 4.16232C20.1446 4.02503 20.1292 3.92046 20.1139 3.92987C20.0987 3.93929 20.0862 3.86582 20.0862 3.76652C20.0862 3.66723 20.0715 3.58596 20.0537 3.58596C20.0358 3.58596 20.0212 3.5284 20.0212 3.45801C20.0212 3.38762 20.0066 3.32096 19.9887 3.30992C19.9709 3.29888 19.9563 3.24684 19.9563 3.19431C19.9563 3.14178 19.9416 3.09883 19.9238 3.09883C19.9059 3.09883 19.8913 3.06319 19.8913 3.01959C19.8913 2.976 19.8767 2.93126 19.8588 2.92022C19.841 2.90918 19.8264 2.85632 19.8264 2.80274C19.8264 2.74607 19.8128 2.71368 19.7939 2.72537C19.7756 2.73665 19.7614 2.71083 19.7614 2.66642C19.7614 2.62299 19.7237 2.5198 19.6775 2.43715C19.6313 2.35458 19.6026 2.28695 19.6137 2.28695C19.6249 2.28695 19.6042 2.25496 19.5679 2.21591C19.5314 2.17678 19.5016 2.12474 19.5016 2.1003C19.5016 2.07578 19.4884 2.06393 19.4723 2.07391C19.4561 2.0839 19.4289 2.05183 19.4116 2.00279C19.3772 1.90464 19.0062 1.50755 18.949 1.50755C18.9293 1.50755 18.9222 1.49293 18.9333 1.47507C18.9443 1.45721 18.9334 1.4426 18.9092 1.4426C18.848 1.4426 18.6903 1.36669 18.69 1.33705C18.6898 1.32366 18.6313 1.31269 18.5598 1.31269C18.4884 1.31269 18.4299 1.29922 18.4299 1.28282C18.4299 1.26642 18.3057 1.25327 18.1539 1.25367C18.0021 1.254 17.8778 1.26747 17.8778 1.28355C17.8778 1.29954 17.7682 1.31269 17.6343 1.31269C17.4936 1.31269 17.3907 1.32642 17.3907 1.34517C17.3907 1.36303 17.3116 1.37765 17.2148 1.37765C17.1181 1.37765 17.0339 1.39258 17.0279 1.41077C17.0218 1.42904 16.9708 1.4473 16.9146 1.45136C16.8584 1.4555 16.8192 1.46979 16.8275 1.48319C16.8403 1.50405 16.7102 1.52313 16.6357 1.51136C16.6223 1.50925 16.6113 1.52216 16.6113 1.54002C16.6113 1.55788 16.583 1.5725 16.5483 1.5725C16.5136 1.5725 16.4762 1.58711 16.4652 1.60497C16.4541 1.62283 16.4106 1.63745 16.3686 1.63745C16.3264 1.63745 16.2871 1.64849 16.2811 1.66197C16.268 1.69184 15.824 1.91763 15.8068 1.90326C15.8 1.89757 15.77 1.91949 15.7402 1.95197C15.7102 1.98436 15.6648 2.01546 15.6392 2.02106C15.6135 2.02658 15.577 2.05134 15.558 2.07611C15.539 2.10079 15.504 2.12547 15.4804 2.13091C15.4566 2.13635 15.3846 2.18815 15.3203 2.24595C15.2558 2.30368 15.1973 2.34508 15.19 2.33786C15.1828 2.33063 15.1065 2.39664 15.0205 2.48448C14.9344 2.57233 14.8443 2.64507 14.8203 2.64613C14.7962 2.64726 14.7253 2.711 14.6628 2.78788C14.6003 2.86477 14.5404 2.92282 14.5296 2.91689C14.5189 2.91104 14.4897 2.94587 14.4647 2.99442C14.4397 3.04289 14.3863 3.11613 14.3462 3.15713C14.306 3.19813 14.2731 3.24562 14.2731 3.26267C14.2731 3.27972 14.2548 3.29368 14.2325 3.29377C14.2102 3.29377 14.1503 3.35953 14.0996 3.4399C14.0488 3.5202 13.9968 3.58596 13.9839 3.58596C13.971 3.58596 13.9404 3.63711 13.9159 3.69962C13.8913 3.76214 13.8594 3.81329 13.8448 3.81329C13.8303 3.81329 13.8184 3.8361 13.8184 3.86395C13.8184 3.8918 13.8038 3.90552 13.786 3.89448C13.7681 3.88343 13.7535 3.89716 13.7535 3.925C13.7535 3.95285 13.7389 3.97566 13.721 3.97566C13.7031 3.97566 13.6885 4.00164 13.6885 4.03347C13.6885 4.06521 13.6593 4.1123 13.6236 4.13804C13.5879 4.16378 13.5586 4.21087 13.5586 4.24261C13.5586 4.27874 13.5343 4.30042 13.4937 4.30042C13.458 4.30042 13.4287 4.2858 13.4287 4.26794C13.4287 4.25008 13.4059 4.23547 13.3781 4.23547C13.3502 4.23547 13.3365 4.22085 13.3475 4.20299C13.3586 4.18513 13.3376 4.17051 13.3008 4.17051C13.264 4.17051 13.2339 4.15858 13.2339 4.14405C13.2339 4.10621 12.9797 3.97566 12.906 3.97566C12.872 3.97566 12.8442 3.96105 12.8442 3.94319C12.8442 3.92533 12.8085 3.91071 12.7649 3.91071C12.7213 3.91071 12.6766 3.8961 12.6656 3.87824C12.6545 3.86038 12.5961 3.84576 12.5357 3.84576C12.4753 3.84576 12.4168 3.83115 12.4058 3.81329C12.3942 3.79461 12.222 3.78081 11.9998 3.78081C11.7776 3.78081 11.6054 3.79461 11.5939 3.81329C11.5828 3.83115 11.5244 3.84576 11.464 3.84576C11.4036 3.84576 11.3451 3.86038 11.3341 3.87824C11.323 3.8961 11.2783 3.91071 11.2347 3.91071C11.1911 3.91071 11.1555 3.92533 11.1555 3.94319C11.1555 3.96105 11.1276 3.97566 11.0936 3.97566C11.02 3.97566 10.7658 4.10621 10.7658 4.14405C10.7658 4.15858 10.7398 4.17051 10.708 4.17051C10.6762 4.17051 10.6291 4.19974 10.6034 4.23547C10.5481 4.31219 10.441 4.32201 10.441 4.25032C10.441 4.2228 10.4141 4.17141 10.3813 4.13617C10.3484 4.10086 10.3012 4.03209 10.2764 3.98321C10.2516 3.93442 10.1908 3.84365 10.1413 3.78154C10.0918 3.71943 10.0513 3.64758 10.0513 3.62185C10.0513 3.59619 10.042 3.5845 10.0305 3.59595C10.0191 3.60739 9.96996 3.55414 9.92149 3.47766C9.87294 3.4011 9.75895 3.26421 9.66818 3.17344C9.57741 3.08268 9.51165 2.99986 9.52204 2.98939C9.53244 2.979 9.51701 2.96122 9.48762 2.95001C9.45831 2.93873 9.43428 2.91575 9.43428 2.89903C9.43428 2.859 9.31648 2.74372 9.17448 2.64475C9.11196 2.60115 9.02209 2.52475 8.97476 2.4749C8.92734 2.42513 8.87327 2.38438 8.85452 2.38438C8.83584 2.38438 8.80556 2.3588 8.78737 2.32755C8.76919 2.29629 8.75384 2.28387 8.75327 2.29986C8.7527 2.31594 8.71073 2.28671 8.65983 2.23491C8.609 2.18319 8.54689 2.13635 8.52181 2.13091C8.4968 2.12547 8.46018 2.10014 8.44054 2.07456C8.42097 2.04907 8.3954 2.0377 8.38371 2.04931C8.3721 2.06092 8.3626 2.05256 8.3626 2.03064C8.3626 2.00872 8.35066 1.99825 8.33605 2.00726C8.32143 2.01627 8.28993 1.99654 8.26606 1.96342C8.24219 1.93029 8.20306 1.91064 8.17919 1.91982C8.15532 1.92899 8.12683 1.913 8.11587 1.88442C8.10482 1.85576 8.06821 1.8323 8.03435 1.8323C8.00058 1.8323 7.97289 1.81768 7.97289 1.79982C7.97289 1.78196 7.94456 1.76735 7.90989 1.76735C7.87522 1.76735 7.8378 1.75273 7.82676 1.73487C7.81571 1.71701 7.77747 1.7024 7.74175 1.7024C7.70603 1.7024 7.68581 1.68778 7.69685 1.66992C7.70855 1.65101 7.6755 1.63745 7.61761 1.63745C7.56297 1.63745 7.51824 1.62283 7.51824 1.60497C7.51824 1.58711 7.48081 1.5725 7.4351 1.5725C7.3894 1.5725 7.35911 1.56097 7.36788 1.54692C7.37657 1.53288 7.3445 1.5181 7.29668 1.51412C7.24886 1.51023 7.20485 1.49253 7.19893 1.47483C7.19292 1.45705 7.13812 1.4426 7.07715 1.4426C7.01609 1.4426 6.96616 1.42798 6.96616 1.41012C6.96616 1.39226 6.88579 1.37765 6.78755 1.37765C6.68931 1.37765 6.60893 1.36303 6.60893 1.34517C6.60893 1.32642 6.50607 1.31269 6.36537 1.31269C6.23141 1.31269 6.12181 1.29954 6.12181 1.28355C6.12181 1.2445 5.57622 1.2445 5.56323 1.28355Z" fill="#20B8AF"/>
<path fill-rule="evenodd" clip-rule="evenodd" d="M2.04619 7.40892C1.97474 7.43831 1.89071 7.49116 1.85946 7.52632C1.8282 7.56155 1.80254 7.57714 1.80238 7.56099C1.8023 7.54491 1.77559 7.57195 1.74311 7.62123C1.71064 7.67051 1.67419 7.70095 1.66217 7.68894C1.65007 7.67684 1.64025 7.69137 1.64025 7.72109C1.64025 7.75088 1.62563 7.77524 1.60777 7.77524C1.58991 7.77524 1.5753 7.79716 1.5753 7.82395C1.5753 7.85075 1.56068 7.87267 1.54282 7.87267C1.52496 7.87267 1.51035 7.9092 1.51035 7.95385C1.51035 7.99851 1.49606 8.03504 1.47852 8.03504C1.45831 8.03504 1.44678 8.54783 1.44678 9.44771C1.44686 10.3462 1.45839 10.8604 1.4786 10.8604C1.49606 10.8604 1.51035 10.8978 1.51035 10.9435C1.51035 10.9906 1.52439 11.0179 1.54282 11.0065C1.56068 10.9955 1.5753 11.0071 1.5753 11.0323C1.5753 11.0576 1.61029 11.116 1.65308 11.1622C1.69586 11.2083 1.72395 11.2529 1.71559 11.2614C1.70715 11.2697 1.73061 11.2863 1.76771 11.298C1.80474 11.3098 1.8351 11.3331 1.8351 11.3497C1.8351 11.3664 1.86433 11.38 1.90005 11.38C1.93577 11.38 1.965 11.3946 1.965 11.4125C1.965 11.4303 1.9857 11.4449 2.01103 11.4449C2.03628 11.4449 2.06186 11.4582 2.06787 11.4744C2.07379 11.4907 2.12981 11.5081 2.19233 11.5133C2.25484 11.5185 2.3206 11.5317 2.33847 11.5427C2.35633 11.5537 4.01865 11.5564 6.03252 11.5489L9.69411 11.5352V7.45049L7.81866 7.44635C6.78717 7.44407 5.53403 7.42873 5.03391 7.41225C3.16675 7.35079 2.19005 7.34973 2.04619 7.40892ZM19.8501 7.38846C19.8127 7.4103 18.8373 7.42873 17.0491 7.4414L14.3056 7.46088V11.5348L17.9996 11.5493C20.0314 11.5572 21.7076 11.5516 21.7246 11.5368C21.7415 11.522 21.7963 11.5099 21.8463 11.5099C21.8963 11.5099 21.9373 11.4953 21.9373 11.4774C21.9373 11.4596 21.9665 11.4449 22.0022 11.4449C22.0379 11.4449 22.0672 11.4303 22.0672 11.4125C22.0672 11.3946 22.0832 11.38 22.1026 11.38C22.1551 11.38 22.2956 11.2621 22.2718 11.2382C22.2605 11.2269 22.2707 11.2176 22.2945 11.2176C22.3183 11.2176 22.3289 11.2088 22.3181 11.1979C22.2924 11.1722 22.3683 11.0901 22.4 11.1093C22.4134 11.1173 22.4244 11.1013 22.4244 11.0734C22.4244 11.0456 22.4359 11.0228 22.45 11.0228C22.464 11.0228 22.478 10.9901 22.481 10.9502C22.484 10.9102 22.5014 10.8726 22.5197 10.8665C22.5416 10.8592 22.5529 10.3769 22.5529 9.44374C22.5529 8.53183 22.5416 8.03902 22.5211 8.05169C22.5036 8.06248 22.4893 8.04105 22.4893 8.00403C22.4893 7.88484 22.3374 7.67505 22.1167 7.48954C21.9741 7.36962 21.8192 7.35306 20.8534 7.35404C20.2651 7.35469 19.8858 7.36768 19.8501 7.38846ZM3.38027 13.2269C3.35315 13.2707 3.35551 21.8336 3.38263 21.8775C3.39586 21.8989 3.4039 21.9533 3.40049 21.9985C3.39659 22.0507 3.44149 22.1429 3.52397 22.2517C3.59534 22.3459 3.65371 22.4309 3.65371 22.4408C3.65371 22.4721 3.74513 22.5515 3.78126 22.5515C3.80042 22.5515 3.81609 22.5661 3.81609 22.5839C3.81609 22.6018 3.84532 22.6164 3.88104 22.6164C3.91676 22.6164 3.94599 22.631 3.94599 22.6489C3.94599 22.6668 3.98252 22.6814 4.02718 22.6814C4.07183 22.6814 4.10837 22.696 4.10837 22.7138C4.10837 22.7353 5.06095 22.7463 6.90124 22.7463H9.69411V13.1986H6.54596C4.79522 13.1986 3.39001 13.2112 3.38027 13.2269ZM14.3056 22.7463H17.0985C18.9387 22.7463 19.8913 22.7353 19.8913 22.7138C19.8913 22.696 19.9361 22.6814 19.9907 22.6814C20.0486 22.6814 20.0816 22.6678 20.0699 22.6489C20.0589 22.631 20.0799 22.6164 20.1167 22.6164C20.1535 22.6164 20.1836 22.6018 20.1836 22.5839C20.1836 22.5661 20.1999 22.5515 20.2198 22.5515C20.2684 22.5515 20.4759 22.3226 20.4759 22.2691C20.4759 22.2458 20.4905 22.2267 20.5084 22.2267C20.5262 22.2267 20.5391 22.2158 20.537 22.2024C20.5254 22.129 20.5451 22.0631 20.5733 22.0806C20.5928 22.0926 20.6058 22.0506 20.6058 21.9754C20.6058 21.9064 20.6167 21.8361 20.6301 21.8192C20.6435 21.8022 20.6506 19.856 20.6459 17.4944L20.6373 13.2005L14.3056 13.1977V22.7463Z" fill="white"/>
<path fill-rule="evenodd" clip-rule="evenodd" d="M4.50631 7.37732C4.71618 7.38292 5.0596 7.38292 5.26948 7.37732C5.47935 7.37164 5.30763 7.36701 4.88789 7.36701C4.46815 7.36701 4.29644 7.37164 4.50631 7.37732ZM18.7305 7.37732C18.9403 7.38292 19.2838 7.38292 19.4936 7.37732C19.7035 7.37164 19.5318 7.36701 19.112 7.36701C18.6923 7.36701 18.5206 7.37164 18.7305 7.37732ZM9.71875 15.0659C9.72475 20.6773 9.73669 22.7463 9.76307 22.7463C9.78475 22.7463 9.79133 22.717 9.77964 22.6732C9.76884 22.633 9.75983 19.1769 9.75958 14.9928C9.75934 10.8088 9.74822 7.38552 9.73482 7.38552C9.72143 7.38552 9.7142 10.8417 9.71875 15.0659ZM14.2404 14.9928C14.2401 19.1769 14.2311 22.633 14.2203 22.6732C14.2086 22.717 14.2152 22.7463 14.2369 22.7463C14.2632 22.7463 14.2752 20.6773 14.2812 15.0659C14.2857 10.8417 14.2785 7.38552 14.2651 7.38552C14.2517 7.38552 14.2406 10.8088 14.2404 14.9928ZM3.34491 16.6247C3.34491 19.4111 3.34873 20.5462 3.35344 19.1472C3.35815 17.748 3.35815 15.4683 3.35344 14.081C3.34873 12.6937 3.34491 13.8384 3.34491 16.6247ZM20.6542 16.6247C20.6542 19.4111 20.658 20.5462 20.6627 19.1472C20.6674 17.748 20.6674 15.4683 20.6627 14.081C20.658 12.6937 20.6542 13.8384 20.6542 16.6247Z" fill="white"/>
<path fill-rule="evenodd" clip-rule="evenodd" d="M5.05009 7.41963C5.54128 7.43181 6.78717 7.44399 7.81866 7.44635L9.69411 7.45049L9.69405 11.542L3.37762 11.5586L3.36033 13.2148L9.69411 13.1986L9.70217 17.9803C9.7068 20.6105 9.71053 19.3064 9.71045 15.0822L9.71029 7.40177L6.93366 7.39966C5.15207 7.39828 4.47707 7.40543 5.05009 7.41963ZM14.2947 7.40721C14.2828 7.41907 14.2766 10.8789 14.2811 15.0957C14.2869 20.6073 14.2914 21.4182 14.2974 17.9801L14.3056 13.1977L20.622 13.2006L20.6307 12.3981C20.6374 11.7778 20.63 11.5897 20.5982 11.5695C20.5755 11.5551 19.1504 11.5431 17.4313 11.5429L14.3055 11.5424V7.45049L16.181 7.4461C17.2125 7.44375 18.4583 7.43189 18.9495 7.41972C19.5872 7.40396 19.0525 7.39593 17.0795 7.39162C15.5597 7.3883 14.3066 7.39528 14.2947 7.40721Z" fill="#20B8AF"/>
<path fill-rule="evenodd" clip-rule="evenodd" d="M9.75874 7.38605L9.75958 14.9928C9.75983 19.1769 9.76884 22.633 9.77964 22.6732L9.79876 22.7463H14.2003L14.2203 22.6732C14.2311 22.633 14.2401 19.1769 14.2404 14.9928L14.2403 7.38605L18.3484 7.36859L14.2244 7.36933L14.208 22.6489H9.79167L9.77527 7.36933L5.65062 7.36859L9.75874 7.38605Z" fill="#F46454"/>
</svg>
