<svg width="24" height="24" viewBox="0 0 24 24" fill="none" xmlns="http://www.w3.org/2000/svg">
<g clip-path="url(#clip0_1420_108722)">
<path d="M3.42706 22.2847V4.4894L18.4518 12L9.94235 16.2529V12C9.94235 11.0541 9.17647 10.2847 8.22706 10.2847C7.28118 10.2847 6.51177 11.0506 6.51177 12V19.0306C6.51177 19.9765 7.28118 20.7459 8.22706 20.7459C8.49177 20.7459 8.75647 20.6823 8.99294 20.5659L23.0506 13.5388C23.8976 13.1153 24.24 12.0847 23.8165 11.2376C23.6506 10.9059 23.3824 10.6376 23.0506 10.4718L2.48118 0.179993C1.63412 -0.243537 0.603529 0.0988162 0.18 0.945875C0.0635294 1.18588 0 1.44705 0 1.71529V22.2847C0 23.2341 0.765882 24 1.71529 24C2.66118 24 3.42706 23.2341 3.42706 22.2847Z" fill="#FF002A"/>
</g>
<defs>
<clipPath id="clip0_1420_108722">
<rect width="24" height="24" fill="white"/>
</clipPath>
</defs>
</svg>
