<svg width="25" height="25" viewBox="0 0 25 25" fill="none" xmlns="http://www.w3.org/2000/svg">
<path d="M23.3031 8.06534C22.0996 5.22861 17.1568 4.62688 11.8272 6.43207L9.46327 4.97072C8.7326 4.54091 7.87298 5.05668 7.83 5.87332V8.19428C3.23105 10.9451 0.566243 14.8133 1.68374 17.5211C3.01615 20.6587 8.90452 21.0885 14.8788 18.4667C20.8532 15.8878 24.6355 11.2029 23.3031 8.06534ZM10.151 6.8189L15.8244 10.3003C16.2542 10.5582 16.2972 11.16 15.8674 11.4608L10.108 14.8563C9.67817 15.1142 9.07644 14.8133 9.07644 14.2116L9.03346 7.46361C9.07644 6.90486 9.67817 6.56101 10.151 6.8189V6.8189ZM7.18529 19.4553C4.60644 19.2833 3.53192 17.6071 4.21961 15.3291C4.21961 15.7159 4.26259 16.0598 4.43452 16.4036C5.46605 18.8105 10.022 19.1544 14.621 17.1343C14.7069 17.0913 14.7929 17.0483 14.9218 17.0053C12.3 18.6816 9.42029 19.6272 7.18529 19.4553V19.4553ZM17.9305 13.352C15.6095 16.1887 11.4834 18.1658 8.64663 17.9509C5.8099 17.736 5.38009 15.2861 7.70106 12.4494C7.74404 12.4064 7.78702 12.3204 7.83 12.2775V15.8449C7.83 16.7475 8.73259 17.1773 9.37731 16.8334L17.8445 11.8477C18.4892 11.4178 18.4463 10.5152 17.8015 10.1284L14.3631 8.19428C15.3087 7.9364 16.1683 7.80746 16.9849 7.85044C19.8216 8.02236 20.2515 10.5152 17.9305 13.352V13.352ZM21.1111 9.2688C21.1111 9.22582 21.1111 9.22582 21.0681 9.18284C20.2515 7.24871 17.1568 6.64697 13.5464 7.54957L12.9447 7.20572C14.7499 6.38909 16.5121 6.00226 17.9735 6.1312C20.1655 6.30313 21.24 7.50659 21.1111 9.2688" fill="white"/>
</svg>
