<svg width="24" height="24" viewBox="0 0 24 24" fill="none" xmlns="http://www.w3.org/2000/svg">
<g clip-path="url(#clip0_1856_82684)">
<path d="M12.3662 8.39462H5.77023C5.74607 8.39462 5.72191 8.4067 5.70983 8.43086L3.61988 15.1477C3.6078 15.1839 3.63197 15.2202 3.68029 15.2202H6.82124C6.84541 15.2202 6.86957 15.2081 6.88165 15.1839L7.46151 13.2873C7.4736 13.251 7.44943 13.2148 7.40111 13.2148H6.01184C5.9756 13.2148 5.93936 13.1785 5.95144 13.1423L6.80916 10.4966C6.82124 10.4725 6.8454 10.4604 6.86957 10.4604H11.7018C11.738 10.4604 11.7743 10.4966 11.7622 10.5329L10.3125 15.1839C9.72059 17.0685 7.86018 18.6269 5.96352 18.6269H2.52055C0.623894 18.6269 -0.427118 17.0806 0.164832 15.1839L2.33934 8.31006C2.93129 6.4134 4.93667 5.01205 6.82124 5.01205H13.4173C13.4535 5.01205 13.4897 5.0483 13.4777 5.08454L12.4266 8.35838C12.4266 8.38254 12.4025 8.39462 12.3662 8.39462Z" fill="#E11C28"/>
<path d="M21.3784 5H18.2133C16.2683 5 14.2146 6.43759 13.6106 8.38257L11.5569 15.0752C10.9407 17.0202 11.9918 18.6148 13.9367 18.6148H17.1019C19.0468 18.6148 21.1972 17.0081 21.8012 15.0631L23.8307 8.39465C24.4469 6.44967 23.3234 5 21.3784 5ZM18.2495 15.2323H15.0119C14.9757 15.2323 14.9394 15.196 14.9515 15.1598L17.0535 8.43089C17.0656 8.40673 17.0898 8.39465 17.1139 8.39465H20.3274C20.3636 8.39465 20.3999 8.43089 20.3878 8.46713L18.3099 15.196C18.2978 15.2202 18.2737 15.2323 18.2495 15.2323Z" fill="#E11C28"/>
</g>
<defs>
<clipPath id="clip0_1856_82684">
<rect width="24" height="24" fill="white"/>
</clipPath>
</defs>
</svg>
