<svg width="24" height="24" viewBox="0 0 24 24" fill="none" xmlns="http://www.w3.org/2000/svg">
<path d="M22 3.04734V21.6504C22 21.9617 21.3976 22.1173 21.0456 21.8963L12.3952 16.5118C12.2747 16.4452 12.1386 16.4102 12 16.4102C11.8614 16.4102 11.7253 16.4452 11.6048 16.5118L2.9544 21.8963C2.6024 22.1157 2 21.9601 2 21.6504V3.04734C2 2.46687 2.7544 2 3.6848 2H20.3144C21.2456 2 22 2.46687 22 3.04734Z" fill="url(#paint0_linear_624_78319)"/>
<path d="M3.45355 3.72989C3.45355 3.55721 3.69459 3.41669 3.98919 3.41669H19.8961C20.1922 3.41669 20.4317 3.55651 20.4317 3.72989V19.1983C20.4317 19.3758 20.0637 19.4653 19.8487 19.3381L13.0813 15.3812C12.7343 15.2006 12.3419 15.1057 11.9427 15.1057C11.5434 15.1057 11.151 15.2006 10.804 15.3812L4.03434 19.3395C3.81932 19.4653 3.45126 19.3758 3.45126 19.1997L3.45355 3.72989Z" fill="url(#paint1_linear_624_78319)"/>
<path d="M17.3541 8.05864L13.7123 7.73014L12.2678 4.46479C12.2452 4.41389 12.2077 4.37054 12.1601 4.34009C12.1124 4.30963 12.0567 4.29341 11.9997 4.29341C11.9427 4.29341 11.8869 4.30963 11.8393 4.34009C11.7916 4.37054 11.7542 4.41389 11.7316 4.46479L10.2862 7.73087L6.64595 8.05864C6.5892 8.06386 6.53526 8.08512 6.49078 8.11979C6.4463 8.15446 6.41322 8.20103 6.39563 8.25377C6.37803 8.3065 6.37669 8.36309 6.39176 8.41656C6.40683 8.47003 6.43766 8.51804 6.48044 8.55468L9.22658 10.9015L8.42303 14.3701C8.4104 14.4242 8.41438 14.4807 8.43447 14.5327C8.45456 14.5846 8.48988 14.6296 8.53606 14.6622C8.58223 14.6948 8.63723 14.7135 8.69421 14.7159C8.7512 14.7184 8.80767 14.7045 8.85663 14.676L12.0019 12.8609L15.1472 14.676C15.1962 14.7045 15.2526 14.7184 15.3096 14.7159C15.3666 14.7135 15.4216 14.6948 15.4678 14.6622C15.5139 14.6296 15.5493 14.5846 15.5694 14.5327C15.5895 14.4807 15.5934 14.4242 15.5808 14.3701L14.7765 10.9015L17.5196 8.55468C17.5624 8.51804 17.5933 8.47003 17.6083 8.41656C17.6234 8.36309 17.6221 8.3065 17.6045 8.25377C17.5869 8.20103 17.5538 8.15446 17.5093 8.11979C17.4648 8.08512 17.4109 8.06386 17.3541 8.05864Z" fill="#FFDC64"/>
<path d="M12.2678 4.46479C12.2452 4.41389 12.2077 4.37054 12.1601 4.34009C12.1124 4.30963 12.0567 4.29341 11.9997 4.29341C11.9427 4.29341 11.8869 4.30963 11.8393 4.34009C11.7916 4.37054 11.7542 4.41389 11.7316 4.46479L10.2862 7.73087L6.64595 8.05864C6.5892 8.06386 6.53526 8.08512 6.49078 8.11979C6.4463 8.15446 6.41322 8.20103 6.39563 8.25377C6.37803 8.3065 6.37669 8.36309 6.39176 8.41656C6.40683 8.47003 6.43766 8.51804 6.48044 8.55468L9.22658 10.9015L8.42303 14.3701C8.4104 14.4242 8.41438 14.4807 8.43447 14.5327C8.45456 14.5846 8.48988 14.6296 8.53606 14.6622C8.58223 14.6948 8.63723 14.7135 8.69421 14.7159C8.7512 14.7184 8.80767 14.7045 8.85663 14.676L9.55833 14.2711C9.65493 10.3837 11.5121 7.64274 12.9829 6.07962L12.2678 4.46479Z" fill="url(#paint2_linear_624_78319)"/>
<path d="M9.47855 8.97923C9.80581 9.32376 9.92787 9.7302 9.75563 9.8868C9.58339 10.0434 9.1745 9.89117 8.8465 9.54664C8.51849 9.20212 8.39717 8.79568 8.56941 8.63835C8.74165 8.48102 9.15054 8.63398 9.47855 8.97923Z" fill="white"/>
<defs>
<linearGradient id="paint0_linear_624_78319" x1="12.0379" y1="28.5999" x2="12.0379" y2="4.29189" gradientUnits="userSpaceOnUse">
<stop stop-color="#05878B"/>
<stop offset="1" stop-color="#018F93"/>
</linearGradient>
<linearGradient id="paint1_linear_624_78319" x1="2891.8" y1="7513.6" x2="2891.8" y2="11962" gradientUnits="userSpaceOnUse">
<stop stop-color="#21CCB7"/>
<stop offset="1" stop-color="#9C2B7D"/>
</linearGradient>
<linearGradient id="paint2_linear_624_78319" x1="1.99841" y1="12.0008" x2="22" y2="12.0008" gradientUnits="userSpaceOnUse">
<stop stop-color="#DE8D00"/>
<stop offset="0.41" stop-color="#EAA014"/>
<stop offset="1" stop-color="#FFC138"/>
</linearGradient>
</defs>
</svg>
