<svg width="25" height="24" viewBox="0 0 25 24" fill="none" xmlns="http://www.w3.org/2000/svg">
<g clip-path="url(#clip0_1481_141621)">
<path d="M13.5605 9.30561C10.9554 9.46755 12.125 12.8604 15.0053 12.6815C17.8221 12.5065 16.3369 9.13321 13.5605 9.30561Z" fill="#F29100"/>
<path d="M12.46 7.20941C7.82323 7.20941 4.0647 10.9683 4.0647 15.6047C4.0647 20.2411 7.82323 24 12.46 24C17.0968 24 20.8553 20.2415 20.8553 15.6047C20.8553 10.9679 17.0968 7.20941 12.46 7.20941ZM12.46 23.1164C8.31121 23.1164 4.94834 19.7531 4.94834 15.6047C4.94834 11.4563 8.31158 8.09305 12.46 8.09305C16.6084 8.09305 19.9716 11.4563 19.9716 15.6047C19.9716 19.7531 16.6084 23.1164 12.46 23.1164Z" fill="#F29100"/>
<path d="M11.9507 1.42212C9.95803 2.92863 10.3043 5.23836 10.3043 5.23836C10.3043 5.23836 9.05167 1.98729 7.42541 0C7.20577 2.55823 8.0079 5.94888 8.0079 5.94888C8.0079 5.94888 6.989 3.8469 4.4939 3.72932C6.56378 4.92061 7.36626 7.06262 7.55021 7.63753C8.74835 6.89852 10.1459 6.45273 11.6434 6.39863C11.4797 5.86304 10.8997 3.60705 11.9511 1.42212H11.9507Z" fill="#F29100"/>
<path d="M7.0276 16.3978V18.0381H6.34521V13.8111H7.78212C8.26902 13.8111 8.63546 13.9269 8.88072 14.1584C9.12633 14.39 9.24896 14.7074 9.24896 15.1102C9.24896 15.5131 9.12309 15.8236 8.8717 16.053C8.62032 16.2828 8.25712 16.3971 7.78212 16.3971H7.0276V16.3978ZM8.55431 15.1106C8.55431 14.8711 8.48759 14.6886 8.35378 14.5627C8.21997 14.4369 8.00537 14.3741 7.70999 14.3741H7.0276V15.8409H7.70999C8.27263 15.8409 8.55431 15.5975 8.55431 15.1106Z" fill="white"/>
<path d="M10.4222 17.5054H11.883V18.0381H9.7395V13.8111H10.4219V17.5051L10.4222 17.5054Z" fill="white"/>
<path d="M15.0082 17.122H13.2239L12.9008 18.0381H12.1704L13.7271 13.8771H14.5115L16.062 18.0381H15.3317L15.0085 17.122H15.0082ZM14.8166 16.5951L14.1162 14.6194L13.4158 16.5951H14.817H14.8166Z" fill="white"/>
<path d="M18.8042 13.8115L17.3973 16.4995V18.0381H16.7088V16.4995L15.2957 13.8115H16.0859L17.0557 15.7692L18.0256 13.8115H18.8039H18.8042Z" fill="white"/>
</g>
<defs>
<clipPath id="clip0_1481_141621">
<rect width="16.7906" height="24" fill="white" transform="translate(4.0647)"/>
</clipPath>
</defs>
</svg>
