<svg width="24" height="24" viewBox="0 0 24 24" fill="none" xmlns="http://www.w3.org/2000/svg">
<path d="M6.53568 2C8.06112 2 9.6432 2.73192 10.8557 3.74542C11.1761 4.01973 11.586 4.17073 12.0101 4.17073C12.4342 4.17073 12.844 4.01973 13.1645 3.74542C14.3674 2.73192 15.9494 2 17.472 2C21.0787 2 24 5.04335 24 8.79871C24 12.5541 19.392 16.5351 17.135 18.3867C16.2182 19.1385 14.3242 20.628 13.1098 21.6054C12.7974 21.8605 12.4048 22 11.9995 22C11.5942 22 11.2016 21.8605 10.8893 21.6054C9.67488 20.628 7.7808 19.1404 6.86496 18.3867C4.60992 16.5351 0 12.5531 0 8.79871C0 5.0443 2.92896 2 6.53568 2Z" fill="#E80053"/>
<path d="M6.10566 3.18129C7.14054 3.14147 6.88326 4.36735 5.12838 5.11918C4.22323 5.50405 3.45459 6.14632 2.92037 6.96415C2.27909 7.93879 2.12837 10.0426 2.88581 11.8714C3.30918 12.8935 2.71302 12.9286 1.99013 11.7292C-0.207308 8.081 2.23397 3.33204 6.10566 3.18129Z" fill="#FFDDEA"/>
<path d="M12.5279 4.72669C11.7782 5.36001 13.7606 5.90611 14.23 5.50033C15.0585 4.78358 16.0838 4.37875 16.9593 4.30954C17.7023 4.25076 18.6969 4.5731 19.0118 4.70678C20.7177 5.43396 20.1897 4.54656 19.8393 4.20714C17.8694 2.2977 15.0268 2.61531 12.5279 4.72669Z" fill="#FFDDEA"/>
<path d="M10.4025 4.93243C10.2796 5.23961 9.36375 4.9969 8.76279 4.76272C8.16183 4.52854 7.77399 4.08958 7.89879 3.7824C8.02359 3.47522 8.60823 3.41454 9.20919 3.64872C9.81015 3.8829 10.5253 4.6243 10.4025 4.93243Z" fill="#FFDDEA"/>
<path d="M5.79076 14.8636C6.55876 15.6818 7.00132 16.5104 6.77764 16.7143C6.55396 16.9181 5.7514 16.4241 4.9834 15.6031C4.2154 14.7821 3.77284 13.9591 3.99652 13.7524C4.2202 13.5458 5.02276 14.0454 5.79076 14.8636Z" fill="#FFDDEA"/>
<path d="M9.09873 18.6423C9.29443 18.4121 9.20292 18.0181 8.89433 17.7622C8.58575 17.5063 8.17694 17.4854 7.98124 17.7156C7.78554 17.9458 7.87705 18.3398 8.18564 18.5957C8.49422 18.8516 8.90303 18.8725 9.09873 18.6423Z" fill="#FFDDEA"/>
<path d="M21.7536 6.48633C21.982 7.05518 21.9379 7.60412 21.6576 7.71884C21.3772 7.83356 20.9606 7.45907 20.7321 6.89211C20.5036 6.32515 20.5478 5.77432 20.8281 5.6596C21.1084 5.54488 21.5251 5.91843 21.7536 6.48633Z" fill="#FFDDEA"/>
</svg>
