<svg width="24" height="24" viewBox="0 0 24 24" fill="none" xmlns="http://www.w3.org/2000/svg">
<path d="M22.9333 12.5333C22.9333 18.8662 17.7995 24 11.4667 24C5.1338 24 0 18.8662 0 12.5333C0 6.20047 5.1338 1.06667 11.4667 1.06667C17.7995 1.06667 22.9333 6.20047 22.9333 12.5333Z" fill="#1FB7AF"/>
<path d="M20.4541 12.5333C20.4541 17.4969 16.4303 21.5207 11.4667 21.5207C6.50307 21.5207 2.47928 17.4969 2.47928 12.5333C2.47928 7.56974 6.50307 3.54595 11.4667 3.54595C16.4303 3.54595 20.4541 7.56974 20.4541 12.5333Z" fill="white"/>
<path d="M17.9748 12.5333C17.9748 16.1277 15.061 19.0414 11.4667 19.0414C7.87234 19.0414 4.95856 16.1277 4.95856 12.5333C4.95856 8.939 7.87234 6.02523 11.4667 6.02523C15.061 6.02523 17.9748 8.939 17.9748 12.5333Z" fill="#1FB7AF"/>
<path d="M15.4955 12.5333C15.4955 14.7584 13.6917 16.5622 11.4667 16.5622C9.24161 16.5622 7.43784 14.7584 7.43784 12.5333C7.43784 10.3083 9.24161 8.50451 11.4667 8.50451C13.6917 8.50451 15.4955 10.3083 15.4955 12.5333Z" fill="white"/>
<path d="M16.6784 7.42474L16.1229 3.56664C16.1205 3.54989 16.1258 3.53295 16.1375 3.52054L19.3481 0.0900449C19.5167 -0.0901299 19.8208 0.0168899 19.8373 0.262219L20.0735 3.77775C20.0752 3.80303 20.0938 3.82405 20.1188 3.82902L23.7725 4.55403C23.999 4.59896 24.0785 4.87971 23.9088 5.0351L20.6614 8.00919C20.6489 8.02063 20.6319 8.02589 20.6151 8.0235L16.7264 7.47233C16.7015 7.4688 16.682 7.44941 16.6784 7.42474Z" fill="#078377"/>
<path d="M11.0672 12.9432C10.7351 12.6156 10.7336 12.0829 11.0638 11.7534L20.1018 2.73455C20.4321 2.40504 20.969 2.40351 21.3011 2.73113C21.6332 3.05875 21.6347 3.59145 21.3045 3.92095L12.2664 12.9398C11.9362 13.2693 11.3993 13.2708 11.0672 12.9432Z" fill="#FECB47"/>
<path d="M10.9168 13.0886C10.5847 12.761 10.5831 12.2283 10.9133 11.8988L11.3857 11.4274L12.5884 12.6138L12.116 13.0852C11.7858 13.4147 11.2489 13.4162 10.9168 13.0886Z" fill="#078377"/>
</svg>
