<svg width="24" height="24" viewBox="0 0 24 24" fill="none" xmlns="http://www.w3.org/2000/svg">
<path d="M18.3464 15.5691H1.80522C0.808223 15.5691 0 16.3266 0 17.261V19.4054C0 20.3398 0.808223 21.0973 1.80522 21.0973H18.3464C19.3434 21.0973 20.1516 20.3398 20.1516 19.4054V17.261C20.1516 16.3266 19.3434 15.5691 18.3464 15.5691Z" fill="#0A7073"/>
<path d="M20 9.35556H20.9638C21.5357 9.35556 21.8025 9.53464 21.8025 9.83203V13.7344C21.8025 14.0318 21.5357 14.3554 20.9638 14.3554H20V9.35556Z" fill="#21CCB7"/>
<path d="M21.8025 10.3612L23.3346 10.3554C23.7018 10.3554 24 10.5399 24 10.7671V12.9437C24 13.1709 23.7018 13.3554 23.3346 13.3554H21.8025V10.3612Z" fill="#21CCB7"/>
<path d="M22.6202 4.37075H21.8025V10.3612H22.6202V4.37075Z" fill="#21CCB7"/>
<path d="M23.476 5.55626C24.1745 4.90157 24.1745 3.84011 23.476 3.18542C22.7775 2.53072 21.6449 2.53072 20.9464 3.18542C20.2479 3.84011 20.2479 4.90157 20.9464 5.55626C21.6449 6.21095 22.7775 6.21096 23.476 5.55626Z" fill="#FF1057"/>
<path d="M18.9348 2.99999H1.0652C0.476907 2.99999 0 3.56847 0 4.26974V17.7302C0 18.4315 0.476907 19 1.0652 19H18.9348C19.5231 19 20 18.4315 20 17.7302V4.26974C20 3.56847 19.5231 2.99999 18.9348 2.99999Z" fill="#21CCB7"/>
<path d="M18.2783 5.3554H1.8734C1.53562 5.3554 1.26099 5.65638 1.26099 6.02657V15.9606C1.26099 16.3312 1.53509 16.6318 1.8734 16.6318H18.2781C18.6162 16.6318 18.8905 16.3312 18.8905 15.9606V6.02657C18.8905 5.65638 18.6161 5.3554 18.2783 5.3554Z" fill="#556166"/>
<path d="M6.60814 6.32317H2.58736C2.37409 6.32317 2.2012 6.51264 2.2012 6.74638V15.2406C2.2012 15.4743 2.37409 15.6638 2.58736 15.6638H6.60814C6.82141 15.6638 6.9943 15.4743 6.9943 15.2406V6.74638C6.9943 6.51264 6.82141 6.32317 6.60814 6.32317Z" fill="#F2F2F2"/>
<path d="M12.0862 6.32317H8.06545C7.85218 6.32317 7.67929 6.51264 7.67929 6.74638V15.2406C7.67929 15.4743 7.85218 15.6638 8.06545 15.6638H12.0862C12.2995 15.6638 12.4724 15.4743 12.4724 15.2406V6.74638C12.4724 6.51264 12.2995 6.32317 12.0862 6.32317Z" fill="#F2F2F2"/>
<path d="M17.5643 6.32317H13.5435C13.3303 6.32317 13.1574 6.51264 13.1574 6.74638V15.2406C13.1574 15.4743 13.3303 15.6638 13.5435 15.6638H17.5643C17.7776 15.6638 17.9505 15.4743 17.9505 15.2406V6.74638C17.9505 6.51264 17.7776 6.32317 17.5643 6.32317Z" fill="#F2F2F2"/>
<path d="M5.67186 10.1255C6.06752 9.27547 6.16319 8.84802 6.16977 8.63591H5.91015C5.89697 8.70782 5.86821 8.77333 5.82728 8.82468C5.76647 8.90024 5.68502 8.93859 5.58295 8.93859C5.52285 8.93859 5.41882 8.91271 5.06726 8.72371C4.83609 8.5994 4.62769 8.53632 4.44773 8.53632C4.30031 8.53632 4.17673 8.57745 4.06985 8.66156C3.97258 8.73827 3.89025 8.8561 3.81841 9.02223C3.80243 9.05776 3.77797 9.08554 3.74873 9.10135C3.71949 9.11716 3.68708 9.12014 3.65642 9.10985C3.62576 9.09955 3.59853 9.07653 3.57885 9.04428C3.55918 9.01204 3.54814 8.97233 3.54741 8.9312V8.63591H3.13931V10.1433H3.55328C3.57319 9.98157 3.60947 9.85357 3.66317 9.75468C3.72897 9.63337 3.86002 9.48873 4.11129 9.48873C4.15041 9.48873 4.22669 9.49705 4.47049 9.56221C4.61161 9.60258 4.75546 9.62472 4.89993 9.62829C4.97761 9.62776 5.05492 9.61449 5.13004 9.58878C5.21443 9.56031 5.29659 9.52163 5.37543 9.47325C5.39384 9.46198 5.41394 9.45614 5.43429 9.45615C5.45949 9.45619 5.48421 9.46508 5.50585 9.48188C5.52748 9.49867 5.54521 9.52276 5.55717 9.55158C5.57026 9.58444 5.57547 9.62165 5.57211 9.65839C5.56875 9.69514 5.55698 9.72973 5.53832 9.75768C5.4062 9.96101 5.20792 10.2237 4.94901 10.5382C4.69757 10.8434 4.52597 11.0696 4.43884 11.2143C4.27566 11.4822 4.14862 11.7842 4.0631 12.1073C3.99006 12.4059 3.95095 12.7168 3.94698 13.0301C3.94396 13.1687 3.85113 13.2787 3.73537 13.2787H3.57977V13.4807H5.28332V13.2787H5.13004C5.10073 13.2791 5.07167 13.2717 5.04457 13.2572C5.01748 13.2427 4.99291 13.2213 4.97231 13.1942C4.95452 13.1705 4.94061 13.1423 4.93144 13.1114C4.92227 13.0805 4.91803 13.0475 4.91896 13.0144C4.92795 12.6191 4.97241 12.2265 5.05144 11.8446C5.14035 11.4234 5.31355 10.9259 5.56428 10.3658C5.58864 10.3071 5.62385 10.2288 5.67186 10.1255Z" fill="#0FA094"/>
<path d="M6.30864 8.51459C6.30757 8.49357 6.30561 8.47346 6.30365 8.45498L5.78228 8.45498V8.51067C5.78228 8.59046 5.76521 8.65153 5.73107 8.69389C5.69675 8.73641 5.64749 8.75766 5.58294 8.75766C5.52367 8.75766 5.36955 8.69058 5.1206 8.55642C4.87165 8.42225 4.64741 8.35524 4.4479 8.3554C4.27576 8.3554 4.12574 8.40584 3.99783 8.50674C3.87548 8.60309 3.77875 8.74496 3.69713 8.93327L3.69485 8.93608L3.69179 8.93696C3.68877 8.93696 3.68575 8.93488 3.68575 8.93096L3.6861 8.45498L3.00006 8.45498V10.324H3.6781C3.68865 10.116 3.72161 9.96092 3.77697 9.85864C3.84549 9.73264 3.95693 9.66964 4.11128 9.66964C4.1581 9.66964 4.26853 9.69275 4.44256 9.73896C4.59286 9.7818 4.74607 9.80502 4.89992 9.80827C4.9889 9.80813 5.07751 9.79338 5.16364 9.76437C5.25642 9.733 5.34674 9.69037 5.43339 9.63706C5.30453 9.83592 5.11106 10.0923 4.85298 10.4062C4.5949 10.7202 4.41998 10.9525 4.32822 11.1031C4.14649 11.4086 4.01407 11.7239 3.93097 12.049C3.85652 12.3405 3.81544 12.6654 3.80773 13.0239C3.80773 13.0643 3.77466 13.0967 3.73536 13.0967H3.44071L3.44071 13.6606H5.42255L5.42272 13.0973L5.13003 13.0967C5.08913 13.0967 5.05641 13.0618 5.05747 13.0197C5.0659 12.6385 5.10869 12.2599 5.18497 11.8917C5.27199 11.483 5.43861 11.0038 5.68483 10.4541C5.70854 10.3983 5.74375 10.32 5.79046 10.2191C6.13686 9.4754 6.31006 8.93912 6.31006 8.61025C6.31006 8.56774 6.30953 8.53608 6.30864 8.51459ZM4.91896 13.0144C4.91803 13.0475 4.92227 13.0805 4.93144 13.1114C4.94061 13.1423 4.95452 13.1705 4.97231 13.1942C4.99291 13.2213 5.01748 13.2427 5.04457 13.2572C5.07167 13.2717 5.10073 13.2791 5.13004 13.2787L5.20489 13.2776C5.2255 13.2776 5.24527 13.2882 5.25984 13.3071C5.27441 13.3261 5.2826 13.3518 5.2826 13.3785C5.2826 13.4053 5.27441 13.431 5.25984 13.4499C5.24527 13.4689 5.2255 13.4795 5.20489 13.4795H3.65747C3.64723 13.4795 3.63709 13.4769 3.62762 13.4718C3.61816 13.4668 3.60957 13.4593 3.60235 13.4498C3.59512 13.4404 3.58941 13.4292 3.58553 13.4169C3.58165 13.4046 3.57969 13.3914 3.57976 13.3781C3.57976 13.3513 3.58795 13.3256 3.60252 13.3067C3.6171 13.2877 3.63686 13.2771 3.65747 13.2771H3.73536C3.85112 13.2771 3.94395 13.168 3.94697 13.0285C3.95106 12.7157 3.99018 12.4054 4.0631 12.1073C4.14847 11.7848 4.2752 11.4834 4.43794 11.2159C4.52507 11.0724 4.69667 10.845 4.94811 10.5398C5.20702 10.2253 5.4053 9.96216 5.53742 9.75929C5.55608 9.73133 5.56785 9.69674 5.57121 9.66C5.57457 9.62326 5.56936 9.58605 5.55627 9.55319C5.54431 9.52437 5.52658 9.50028 5.50495 9.48348C5.48332 9.46669 5.45859 9.4578 5.43339 9.45776C5.41304 9.45775 5.39294 9.46358 5.37453 9.47486C5.29569 9.52324 5.21353 9.56192 5.12914 9.59039C5.05427 9.61561 4.97727 9.62804 4.89993 9.62829C4.75546 9.62472 4.61161 9.60258 4.47049 9.56221C4.22669 9.49705 4.15041 9.48873 4.11129 9.48873C3.86002 9.48873 3.72897 9.63337 3.66317 9.75468C3.62232 9.83198 3.59221 9.91846 3.57425 10.0093C3.56638 10.0476 3.54904 10.0814 3.52491 10.1056C3.50078 10.1298 3.47119 10.1431 3.44071 10.1433H3.27818C3.24134 10.1433 3.20602 10.1243 3.17997 10.0904C3.15393 10.0566 3.1393 10.0107 3.1393 9.96285V8.81635C3.1393 8.76849 3.15393 8.72259 3.17997 8.68875C3.20602 8.65491 3.24134 8.6359 3.27818 8.6359H3.40816C3.42643 8.63587 3.44451 8.64051 3.46139 8.64956C3.47827 8.65862 3.49362 8.6719 3.50655 8.68866C3.51947 8.70541 3.52974 8.72532 3.53675 8.74723C3.54376 8.76914 3.54738 8.79262 3.5474 8.81635L3.54741 8.9312C3.54775 8.97277 3.55862 9.01373 3.57836 9.04646C3.59809 9.07919 3.62559 9.10255 3.65658 9.11292C3.68757 9.12329 3.72032 9.12009 3.74977 9.10382C3.77922 9.08755 3.80372 9.05911 3.81947 9.02292C3.8906 8.85679 3.97364 8.73895 4.07091 8.66224C4.17761 8.57814 4.30208 8.53701 4.44879 8.53701C4.62874 8.53701 4.83715 8.60009 5.06832 8.72439C5.41917 8.9134 5.52319 8.93927 5.58401 8.93927C5.68537 8.93927 5.76752 8.90092 5.82834 8.82536C5.85012 8.79848 5.86848 8.76729 5.88275 8.73294C5.89463 8.7041 5.91229 8.67997 5.93386 8.66309C5.95542 8.64621 5.9801 8.63722 6.00527 8.63705H6.00705C6.0284 8.63711 6.04944 8.64356 6.06857 8.65588C6.08769 8.66821 6.10437 8.68609 6.11731 8.70814C6.13026 8.73019 6.13913 8.75582 6.14323 8.78304C6.14733 8.81026 6.14655 8.83834 6.14095 8.86511C6.08903 9.11603 5.95975 9.51044 5.67292 10.1267C5.62491 10.2299 5.5897 10.3083 5.56534 10.3663C5.31461 10.9259 5.14212 11.4233 5.0525 11.845C4.9732 12.2264 4.92839 12.6196 4.91896 13.0144Z" fill="url(#paint0_linear_994_94630)"/>
<path d="M6.30864 8.51459C6.30757 8.49357 6.30561 8.47346 6.30365 8.45498L5.78228 8.45498V8.51067C5.78228 8.59046 5.76521 8.65153 5.73107 8.69389C5.69675 8.73641 5.64749 8.75766 5.58294 8.75766C5.52367 8.75766 5.36955 8.69058 5.1206 8.55642C4.87165 8.42225 4.64741 8.35524 4.4479 8.3554C4.27576 8.3554 4.12574 8.40584 3.99783 8.50674C3.87548 8.60309 3.77875 8.74496 3.69713 8.93327L3.69485 8.93608L3.69179 8.93696C3.68877 8.93696 3.68575 8.93488 3.68575 8.93096L3.6861 8.45498L3.00006 8.45498V10.324H3.6781C3.68865 10.116 3.72161 9.96092 3.77697 9.85864C3.84549 9.73264 3.95693 9.66964 4.11128 9.66964C4.1581 9.66964 4.26853 9.69275 4.44256 9.73896C4.59286 9.7818 4.74607 9.80502 4.89992 9.80827C4.9889 9.80813 5.07751 9.79338 5.16364 9.76437C5.25642 9.733 5.34674 9.69037 5.43339 9.63706C5.30453 9.83592 5.11106 10.0923 4.85298 10.4062C4.5949 10.7202 4.41998 10.9525 4.32822 11.1031C4.14649 11.4086 4.01407 11.7239 3.93097 12.049C3.85652 12.3405 3.81544 12.6654 3.80773 13.0239C3.80773 13.0643 3.77466 13.0967 3.73536 13.0967H3.44071L3.44071 13.6606H5.42255L5.42272 13.0973L5.13003 13.0967C5.08913 13.0967 5.05641 13.0618 5.05747 13.0197C5.0659 12.6385 5.10869 12.2599 5.18497 11.8917C5.27199 11.483 5.43861 11.0038 5.68483 10.4541C5.70854 10.3983 5.74375 10.32 5.79046 10.2191C6.13686 9.4754 6.31006 8.93912 6.31006 8.61025C6.31006 8.56774 6.30953 8.53608 6.30864 8.51459ZM4.91896 13.0144C4.91803 13.0475 4.92227 13.0805 4.93144 13.1114C4.94061 13.1423 4.95452 13.1705 4.97231 13.1942C4.99291 13.2213 5.01748 13.2427 5.04457 13.2572C5.07167 13.2717 5.10073 13.2791 5.13004 13.2787L5.20489 13.2776C5.2255 13.2776 5.24527 13.2882 5.25984 13.3071C5.27441 13.3261 5.2826 13.3518 5.2826 13.3785C5.2826 13.4053 5.27441 13.431 5.25984 13.4499C5.24527 13.4689 5.2255 13.4795 5.20489 13.4795H3.65747C3.64723 13.4795 3.63709 13.4769 3.62762 13.4718C3.61816 13.4668 3.60957 13.4593 3.60235 13.4498C3.59512 13.4404 3.58941 13.4292 3.58553 13.4169C3.58165 13.4046 3.57969 13.3914 3.57976 13.3781C3.57976 13.3513 3.58795 13.3256 3.60252 13.3067C3.6171 13.2877 3.63686 13.2771 3.65747 13.2771H3.73536C3.85112 13.2771 3.94395 13.168 3.94697 13.0285C3.95106 12.7157 3.99018 12.4054 4.0631 12.1073C4.14847 11.7848 4.2752 11.4834 4.43794 11.2159C4.52507 11.0724 4.69667 10.845 4.94811 10.5398C5.20702 10.2253 5.4053 9.96216 5.53742 9.75929C5.55608 9.73133 5.56785 9.69674 5.57121 9.66C5.57457 9.62326 5.56936 9.58605 5.55627 9.55319C5.54431 9.52437 5.52658 9.50028 5.50495 9.48348C5.48332 9.46669 5.45859 9.4578 5.43339 9.45776C5.41304 9.45775 5.39294 9.46358 5.37453 9.47486C5.29569 9.52324 5.21353 9.56192 5.12914 9.59039C5.05427 9.61561 4.97727 9.62804 4.89993 9.62829C4.75546 9.62472 4.61161 9.60258 4.47049 9.56221C4.22669 9.49705 4.15041 9.48873 4.11129 9.48873C3.86002 9.48873 3.72897 9.63337 3.66317 9.75468C3.62232 9.83198 3.59221 9.91846 3.57425 10.0093C3.56638 10.0476 3.54904 10.0814 3.52491 10.1056C3.50078 10.1298 3.47119 10.1431 3.44071 10.1433H3.27818C3.24134 10.1433 3.20602 10.1243 3.17997 10.0904C3.15393 10.0566 3.1393 10.0107 3.1393 9.96285V8.81635C3.1393 8.76849 3.15393 8.72259 3.17997 8.68875C3.20602 8.65491 3.24134 8.6359 3.27818 8.6359H3.40816C3.42643 8.63587 3.44451 8.64051 3.46139 8.64956C3.47827 8.65862 3.49362 8.6719 3.50655 8.68866C3.51947 8.70541 3.52974 8.72532 3.53675 8.74723C3.54376 8.76914 3.54738 8.79262 3.5474 8.81635L3.54741 8.9312C3.54775 8.97277 3.55862 9.01373 3.57836 9.04646C3.59809 9.07919 3.62559 9.10255 3.65658 9.11292C3.68757 9.12329 3.72032 9.12009 3.74977 9.10382C3.77922 9.08755 3.80372 9.05911 3.81947 9.02292C3.8906 8.85679 3.97364 8.73895 4.07091 8.66224C4.17761 8.57814 4.30208 8.53701 4.44879 8.53701C4.62874 8.53701 4.83715 8.60009 5.06832 8.72439C5.41917 8.9134 5.52319 8.93927 5.58401 8.93927C5.68537 8.93927 5.76752 8.90092 5.82834 8.82536C5.85012 8.79848 5.86848 8.76729 5.88275 8.73294C5.89463 8.7041 5.91229 8.67997 5.93386 8.66309C5.95542 8.64621 5.9801 8.63722 6.00527 8.63705H6.00705C6.0284 8.63711 6.04944 8.64356 6.06857 8.65588C6.08769 8.66821 6.10437 8.68609 6.11731 8.70814C6.13026 8.73019 6.13913 8.75582 6.14323 8.78304C6.14733 8.81026 6.14655 8.83834 6.14095 8.86511C6.08903 9.11603 5.95975 9.51044 5.67292 10.1267C5.62491 10.2299 5.5897 10.3083 5.56534 10.3663C5.31461 10.9259 5.14212 11.4233 5.0525 11.845C4.9732 12.2264 4.92839 12.6196 4.91896 13.0144Z" fill="url(#paint1_linear_994_94630)"/>
<path d="M3.23424 8.75698C3.20952 8.75698 3.19067 8.93489 3.18783 9.00098C3.18107 9.16271 3.18783 9.48619 3.18783 9.64793C3.18783 9.83508 3.20863 9.95431 3.23424 9.95431C3.25985 9.95431 3.28136 9.86004 3.28439 9.66133C3.28688 9.49959 3.28759 9.16225 3.28083 9.00144C3.27799 8.93489 3.26003 8.75698 3.23424 8.75698Z" fill="white"/>
<path d="M4.93779 8.72416C4.71266 8.61256 4.5215 8.56242 4.3451 8.59962C4.12051 8.64583 3.93273 8.83206 3.8664 9.07467C3.85787 9.10609 3.8584 9.15993 3.87334 9.16894C3.9089 9.18973 3.94251 9.13659 3.95389 9.1151C4.04512 8.94066 4.16728 8.78816 4.35951 8.74888C4.51848 8.7163 4.67514 8.75535 4.90205 8.83576C4.92676 8.84454 5.19421 8.94898 5.20435 8.91801C5.21448 8.88705 5.06618 8.78793 4.93779 8.72416Z" fill="white"/>
<path d="M5.13003 10.4624C5.09891 10.4367 5.03578 10.5019 4.93727 10.6287C4.67053 10.9714 4.37606 11.3912 4.20126 11.8928C4.08725 12.2284 4.02375 12.5891 4.01419 12.9557C4.01312 12.989 4.00938 13.108 4.04797 13.108C4.09154 13.108 4.10381 12.9924 4.10701 12.961C4.14151 12.6033 4.21747 12.2545 4.33231 11.9263C4.50107 11.4411 4.7429 11.0483 5.0027 10.7135C5.02084 10.6909 5.16933 10.4945 5.13003 10.4624Z" fill="white"/>
<path d="M11.6719 10.1255C12.0675 9.27547 12.1632 8.84802 12.1698 8.63591H11.9101C11.897 8.70782 11.8682 8.77333 11.8273 8.82468C11.7665 8.90024 11.685 8.93859 11.583 8.93859C11.5228 8.93859 11.4188 8.91271 11.0673 8.72371C10.8361 8.5994 10.6277 8.53632 10.4477 8.53632C10.3003 8.53632 10.1767 8.57745 10.0699 8.66156C9.97258 8.73827 9.89025 8.8561 9.81841 9.02223C9.80243 9.05776 9.77797 9.08554 9.74873 9.10135C9.71949 9.11716 9.68708 9.12014 9.65642 9.10985C9.62576 9.09955 9.59853 9.07653 9.57885 9.04428C9.55918 9.01204 9.54814 8.97233 9.54741 8.9312V8.63591H9.13931V10.1433H9.55328C9.57319 9.98157 9.60947 9.85357 9.66317 9.75468C9.72897 9.63337 9.86002 9.48873 10.1113 9.48873C10.1504 9.48873 10.2267 9.49705 10.4705 9.56221C10.6116 9.60258 10.7555 9.62472 10.8999 9.62829C10.9776 9.62776 11.0549 9.61449 11.13 9.58878C11.2144 9.56031 11.2966 9.52163 11.3754 9.47325C11.3938 9.46198 11.4139 9.45614 11.4343 9.45615C11.4595 9.45619 11.4842 9.46508 11.5058 9.48188C11.5275 9.49867 11.5452 9.52276 11.5572 9.55158C11.5703 9.58444 11.5755 9.62165 11.5721 9.65839C11.5687 9.69514 11.557 9.72973 11.5383 9.75768C11.4062 9.96101 11.2079 10.2237 10.949 10.5382C10.6976 10.8434 10.526 11.0696 10.4388 11.2143C10.2757 11.4822 10.1486 11.7842 10.0631 12.1073C9.99006 12.4059 9.95095 12.7168 9.94698 13.0301C9.94396 13.1687 9.85113 13.2787 9.73537 13.2787H9.57977V13.4807H11.2833V13.2787H11.13C11.1007 13.2791 11.0717 13.2717 11.0446 13.2572C11.0175 13.2427 10.9929 13.2213 10.9723 13.1942C10.9545 13.1705 10.9406 13.1423 10.9314 13.1114C10.9223 13.0805 10.918 13.0475 10.919 13.0144C10.9279 12.6191 10.9724 12.2265 11.0514 11.8446C11.1404 11.4234 11.3135 10.9259 11.5643 10.3658C11.5886 10.3071 11.6239 10.2288 11.6719 10.1255Z" fill="#0FA094"/>
<path d="M12.3086 8.51459C12.3076 8.49357 12.3056 8.47346 12.3037 8.45498L11.7823 8.45498V8.51067C11.7823 8.59046 11.7652 8.65153 11.7311 8.69389C11.6967 8.73641 11.6475 8.75766 11.5829 8.75766C11.5237 8.75766 11.3696 8.69058 11.1206 8.55642C10.8716 8.42225 10.6474 8.35524 10.4479 8.3554C10.2758 8.3554 10.1257 8.40584 9.99783 8.50674C9.87548 8.60309 9.77875 8.74496 9.69713 8.93327L9.69485 8.93608L9.69179 8.93696C9.68877 8.93696 9.68575 8.93488 9.68575 8.93096L9.6861 8.45498L9.00006 8.45498V10.324H9.6781C9.68865 10.116 9.72161 9.96092 9.77697 9.85864C9.84549 9.73264 9.95693 9.66964 10.1113 9.66964C10.1581 9.66964 10.2685 9.69275 10.4426 9.73896C10.5929 9.7818 10.7461 9.80502 10.8999 9.80827C10.9889 9.80813 11.0775 9.79338 11.1636 9.76437C11.2564 9.733 11.3467 9.69037 11.4334 9.63706C11.3045 9.83592 11.1111 10.0923 10.853 10.4062C10.5949 10.7202 10.42 10.9525 10.3282 11.1031C10.1465 11.4086 10.0141 11.7239 9.93097 12.049C9.85652 12.3405 9.81544 12.6654 9.80773 13.0239C9.80773 13.0643 9.77466 13.0967 9.73536 13.0967H9.44071L9.44071 13.6606H11.4225L11.4227 13.0973L11.13 13.0967C11.0891 13.0967 11.0564 13.0618 11.0575 13.0197C11.0659 12.6385 11.1087 12.2599 11.185 11.8917C11.272 11.483 11.4386 11.0038 11.6848 10.4541C11.7085 10.3983 11.7438 10.32 11.7905 10.2191C12.1369 9.4754 12.3101 8.93912 12.3101 8.61025C12.3101 8.56774 12.3095 8.53608 12.3086 8.51459ZM10.919 13.0144C10.918 13.0475 10.9223 13.0805 10.9314 13.1114C10.9406 13.1423 10.9545 13.1705 10.9723 13.1942C10.9929 13.2213 11.0175 13.2427 11.0446 13.2572C11.0717 13.2717 11.1007 13.2791 11.13 13.2787L11.2049 13.2776C11.2255 13.2776 11.2453 13.2882 11.2598 13.3071C11.2744 13.3261 11.2826 13.3518 11.2826 13.3785C11.2826 13.4053 11.2744 13.431 11.2598 13.4499C11.2453 13.4689 11.2255 13.4795 11.2049 13.4795H9.65747C9.64723 13.4795 9.63709 13.4769 9.62762 13.4718C9.61816 13.4668 9.60957 13.4593 9.60235 13.4498C9.59512 13.4404 9.58941 13.4292 9.58553 13.4169C9.58165 13.4046 9.57969 13.3914 9.57976 13.3781C9.57976 13.3513 9.58795 13.3256 9.60252 13.3067C9.6171 13.2877 9.63686 13.2771 9.65747 13.2771H9.73536C9.85112 13.2771 9.94395 13.168 9.94697 13.0285C9.95106 12.7157 9.99018 12.4054 10.0631 12.1073C10.1485 11.7848 10.2752 11.4834 10.4379 11.2159C10.5251 11.0724 10.6967 10.845 10.9481 10.5398C11.207 10.2253 11.4053 9.96216 11.5374 9.75929C11.5561 9.73133 11.5678 9.69674 11.5712 9.66C11.5746 9.62326 11.5694 9.58605 11.5563 9.55319C11.5443 9.52437 11.5266 9.50028 11.5049 9.48348C11.4833 9.46669 11.4586 9.4578 11.4334 9.45776C11.413 9.45775 11.3929 9.46358 11.3745 9.47486C11.2957 9.52324 11.2135 9.56192 11.1291 9.59039C11.0543 9.61561 10.9773 9.62804 10.8999 9.62829C10.7555 9.62472 10.6116 9.60258 10.4705 9.56221C10.2267 9.49705 10.1504 9.48873 10.1113 9.48873C9.86002 9.48873 9.72897 9.63337 9.66317 9.75468C9.62232 9.83198 9.59221 9.91846 9.57425 10.0093C9.56638 10.0476 9.54904 10.0814 9.52491 10.1056C9.50078 10.1298 9.4712 10.1431 9.44071 10.1433H9.27818C9.24134 10.1433 9.20602 10.1243 9.17997 10.0904C9.15393 10.0566 9.1393 10.0107 9.1393 9.96285V8.81635C9.1393 8.76849 9.15393 8.72259 9.17997 8.68875C9.20602 8.65491 9.24134 8.6359 9.27818 8.6359H9.40816C9.42643 8.63587 9.44451 8.64051 9.46139 8.64956C9.47827 8.65862 9.49362 8.6719 9.50655 8.68866C9.51947 8.70541 9.52974 8.72532 9.53675 8.74723C9.54376 8.76914 9.54738 8.79262 9.5474 8.81635L9.54741 8.9312C9.54775 8.97277 9.55862 9.01373 9.57836 9.04646C9.59809 9.07919 9.62559 9.10255 9.65658 9.11292C9.68757 9.12329 9.72032 9.12009 9.74977 9.10382C9.77922 9.08755 9.80372 9.05911 9.81947 9.02292C9.8906 8.85679 9.97364 8.73895 10.0709 8.66224C10.1776 8.57814 10.3021 8.53701 10.4488 8.53701C10.6287 8.53701 10.8372 8.60009 11.0683 8.72439C11.4192 8.9134 11.5232 8.93927 11.584 8.93927C11.6854 8.93927 11.7675 8.90092 11.8283 8.82536C11.8501 8.79848 11.8685 8.76729 11.8828 8.73294C11.8946 8.7041 11.9123 8.67997 11.9339 8.66309C11.9554 8.64621 11.9801 8.63722 12.0053 8.63705H12.0071C12.0284 8.63711 12.0494 8.64356 12.0686 8.65588C12.0877 8.66821 12.1044 8.68609 12.1173 8.70814C12.1303 8.73019 12.1391 8.75582 12.1432 8.78304C12.1473 8.81026 12.1465 8.83834 12.141 8.86511C12.089 9.11603 11.9598 9.51044 11.6729 10.1267C11.6249 10.2299 11.5897 10.3083 11.5653 10.3663C11.3146 10.9259 11.1421 11.4233 11.0525 11.845C10.9732 12.2264 10.9284 12.6196 10.919 13.0144Z" fill="url(#paint2_linear_994_94630)"/>
<path d="M12.3086 8.51459C12.3076 8.49357 12.3056 8.47346 12.3037 8.45498L11.7823 8.45498V8.51067C11.7823 8.59046 11.7652 8.65153 11.7311 8.69389C11.6967 8.73641 11.6475 8.75766 11.5829 8.75766C11.5237 8.75766 11.3696 8.69058 11.1206 8.55642C10.8716 8.42225 10.6474 8.35524 10.4479 8.3554C10.2758 8.3554 10.1257 8.40584 9.99783 8.50674C9.87548 8.60309 9.77875 8.74496 9.69713 8.93327L9.69485 8.93608L9.69179 8.93696C9.68877 8.93696 9.68575 8.93488 9.68575 8.93096L9.6861 8.45498L9.00006 8.45498V10.324H9.6781C9.68865 10.116 9.72161 9.96092 9.77697 9.85864C9.84549 9.73264 9.95693 9.66964 10.1113 9.66964C10.1581 9.66964 10.2685 9.69275 10.4426 9.73896C10.5929 9.7818 10.7461 9.80502 10.8999 9.80827C10.9889 9.80813 11.0775 9.79338 11.1636 9.76437C11.2564 9.733 11.3467 9.69037 11.4334 9.63706C11.3045 9.83592 11.1111 10.0923 10.853 10.4062C10.5949 10.7202 10.42 10.9525 10.3282 11.1031C10.1465 11.4086 10.0141 11.7239 9.93097 12.049C9.85652 12.3405 9.81544 12.6654 9.80773 13.0239C9.80773 13.0643 9.77466 13.0967 9.73536 13.0967H9.44071L9.44071 13.6606H11.4225L11.4227 13.0973L11.13 13.0967C11.0891 13.0967 11.0564 13.0618 11.0575 13.0197C11.0659 12.6385 11.1087 12.2599 11.185 11.8917C11.272 11.483 11.4386 11.0038 11.6848 10.4541C11.7085 10.3983 11.7438 10.32 11.7905 10.2191C12.1369 9.4754 12.3101 8.93912 12.3101 8.61025C12.3101 8.56774 12.3095 8.53608 12.3086 8.51459ZM10.919 13.0144C10.918 13.0475 10.9223 13.0805 10.9314 13.1114C10.9406 13.1423 10.9545 13.1705 10.9723 13.1942C10.9929 13.2213 11.0175 13.2427 11.0446 13.2572C11.0717 13.2717 11.1007 13.2791 11.13 13.2787L11.2049 13.2776C11.2255 13.2776 11.2453 13.2882 11.2598 13.3071C11.2744 13.3261 11.2826 13.3518 11.2826 13.3785C11.2826 13.4053 11.2744 13.431 11.2598 13.4499C11.2453 13.4689 11.2255 13.4795 11.2049 13.4795H9.65747C9.64723 13.4795 9.63709 13.4769 9.62762 13.4718C9.61816 13.4668 9.60957 13.4593 9.60235 13.4498C9.59512 13.4404 9.58941 13.4292 9.58553 13.4169C9.58165 13.4046 9.57969 13.3914 9.57976 13.3781C9.57976 13.3513 9.58795 13.3256 9.60252 13.3067C9.6171 13.2877 9.63686 13.2771 9.65747 13.2771H9.73536C9.85112 13.2771 9.94395 13.168 9.94697 13.0285C9.95106 12.7157 9.99018 12.4054 10.0631 12.1073C10.1485 11.7848 10.2752 11.4834 10.4379 11.2159C10.5251 11.0724 10.6967 10.845 10.9481 10.5398C11.207 10.2253 11.4053 9.96216 11.5374 9.75929C11.5561 9.73133 11.5678 9.69674 11.5712 9.66C11.5746 9.62326 11.5694 9.58605 11.5563 9.55319C11.5443 9.52437 11.5266 9.50028 11.5049 9.48348C11.4833 9.46669 11.4586 9.4578 11.4334 9.45776C11.413 9.45775 11.3929 9.46358 11.3745 9.47486C11.2957 9.52324 11.2135 9.56192 11.1291 9.59039C11.0543 9.61561 10.9773 9.62804 10.8999 9.62829C10.7555 9.62472 10.6116 9.60258 10.4705 9.56221C10.2267 9.49705 10.1504 9.48873 10.1113 9.48873C9.86002 9.48873 9.72897 9.63337 9.66317 9.75468C9.62232 9.83198 9.59221 9.91846 9.57425 10.0093C9.56638 10.0476 9.54904 10.0814 9.52491 10.1056C9.50078 10.1298 9.4712 10.1431 9.44071 10.1433H9.27818C9.24134 10.1433 9.20602 10.1243 9.17997 10.0904C9.15393 10.0566 9.1393 10.0107 9.1393 9.96285V8.81635C9.1393 8.76849 9.15393 8.72259 9.17997 8.68875C9.20602 8.65491 9.24134 8.6359 9.27818 8.6359H9.40816C9.42643 8.63587 9.44451 8.64051 9.46139 8.64956C9.47827 8.65862 9.49362 8.6719 9.50655 8.68866C9.51947 8.70541 9.52974 8.72532 9.53675 8.74723C9.54376 8.76914 9.54738 8.79262 9.5474 8.81635L9.54741 8.9312C9.54775 8.97277 9.55862 9.01373 9.57836 9.04646C9.59809 9.07919 9.62559 9.10255 9.65658 9.11292C9.68757 9.12329 9.72032 9.12009 9.74977 9.10382C9.77922 9.08755 9.80372 9.05911 9.81947 9.02292C9.8906 8.85679 9.97364 8.73895 10.0709 8.66224C10.1776 8.57814 10.3021 8.53701 10.4488 8.53701C10.6287 8.53701 10.8372 8.60009 11.0683 8.72439C11.4192 8.9134 11.5232 8.93927 11.584 8.93927C11.6854 8.93927 11.7675 8.90092 11.8283 8.82536C11.8501 8.79848 11.8685 8.76729 11.8828 8.73294C11.8946 8.7041 11.9123 8.67997 11.9339 8.66309C11.9554 8.64621 11.9801 8.63722 12.0053 8.63705H12.0071C12.0284 8.63711 12.0494 8.64356 12.0686 8.65588C12.0877 8.66821 12.1044 8.68609 12.1173 8.70814C12.1303 8.73019 12.1391 8.75582 12.1432 8.78304C12.1473 8.81026 12.1465 8.83834 12.141 8.86511C12.089 9.11603 11.9598 9.51044 11.6729 10.1267C11.6249 10.2299 11.5897 10.3083 11.5653 10.3663C11.3146 10.9259 11.1421 11.4233 11.0525 11.845C10.9732 12.2264 10.9284 12.6196 10.919 13.0144Z" fill="url(#paint3_linear_994_94630)"/>
<path d="M9.23424 8.75698C9.20952 8.75698 9.19067 8.93489 9.18783 9.00098C9.18107 9.16271 9.18783 9.48619 9.18783 9.64793C9.18783 9.83508 9.20863 9.95431 9.23424 9.95431C9.25985 9.95431 9.28136 9.86004 9.28439 9.66133C9.28688 9.49959 9.28759 9.16225 9.28083 9.00144C9.27799 8.93489 9.26003 8.75698 9.23424 8.75698Z" fill="white"/>
<path d="M10.9378 8.72416C10.7127 8.61256 10.5215 8.56242 10.3451 8.59962C10.1205 8.64583 9.93273 8.83206 9.8664 9.07467C9.85787 9.10609 9.8584 9.15993 9.87334 9.16894C9.9089 9.18973 9.94251 9.13659 9.95389 9.1151C10.0451 8.94066 10.1673 8.78816 10.3595 8.74888C10.5185 8.7163 10.6751 8.75535 10.902 8.83576C10.9268 8.84454 11.1942 8.94898 11.2043 8.91801C11.2145 8.88705 11.0662 8.78793 10.9378 8.72416Z" fill="white"/>
<path d="M11.13 10.4624C11.0989 10.4367 11.0358 10.5019 10.9373 10.6287C10.6705 10.9714 10.3761 11.3912 10.2013 11.8928C10.0873 12.2284 10.0238 12.5891 10.0142 12.9557C10.0131 12.989 10.0094 13.108 10.048 13.108C10.0915 13.108 10.1038 12.9924 10.107 12.961C10.1415 12.6033 10.2175 12.2545 10.3323 11.9263C10.5011 11.4411 10.7429 11.0483 11.0027 10.7135C11.0208 10.6909 11.1693 10.4945 11.13 10.4624Z" fill="white"/>
<path d="M16.6719 10.1255C17.0675 9.27547 17.1632 8.84802 17.1698 8.63591H16.9101C16.897 8.70782 16.8682 8.77333 16.8273 8.82468C16.7665 8.90024 16.685 8.93859 16.583 8.93859C16.5228 8.93859 16.4188 8.91271 16.0673 8.72371C15.8361 8.5994 15.6277 8.53632 15.4477 8.53632C15.3003 8.53632 15.1767 8.57745 15.0699 8.66156C14.9726 8.73827 14.8903 8.8561 14.8184 9.02223C14.8024 9.05776 14.778 9.08554 14.7487 9.10135C14.7195 9.11716 14.6871 9.12014 14.6564 9.10985C14.6258 9.09955 14.5985 9.07653 14.5789 9.04428C14.5592 9.01204 14.5481 8.97233 14.5474 8.9312V8.63591H14.1393V10.1433H14.5533C14.5732 9.98157 14.6095 9.85357 14.6632 9.75468C14.729 9.63337 14.86 9.48873 15.1113 9.48873C15.1504 9.48873 15.2267 9.49705 15.4705 9.56221C15.6116 9.60258 15.7555 9.62472 15.8999 9.62829C15.9776 9.62776 16.0549 9.61449 16.13 9.58878C16.2144 9.56031 16.2966 9.52163 16.3754 9.47325C16.3938 9.46198 16.4139 9.45614 16.4343 9.45615C16.4595 9.45619 16.4842 9.46508 16.5058 9.48188C16.5275 9.49867 16.5452 9.52276 16.5572 9.55158C16.5703 9.58444 16.5755 9.62165 16.5721 9.65839C16.5687 9.69514 16.557 9.72973 16.5383 9.75768C16.4062 9.96101 16.2079 10.2237 15.949 10.5382C15.6976 10.8434 15.526 11.0696 15.4388 11.2143C15.2757 11.4822 15.1486 11.7842 15.0631 12.1073C14.9901 12.4059 14.9509 12.7168 14.947 13.0301C14.944 13.1687 14.8511 13.2787 14.7354 13.2787H14.5798V13.4807H16.2833V13.2787H16.13C16.1007 13.2791 16.0717 13.2717 16.0446 13.2572C16.0175 13.2427 15.9929 13.2213 15.9723 13.1942C15.9545 13.1705 15.9406 13.1423 15.9314 13.1114C15.9223 13.0805 15.918 13.0475 15.919 13.0144C15.9279 12.6191 15.9724 12.2265 16.0514 11.8446C16.1403 11.4234 16.3135 10.9259 16.5643 10.3658C16.5886 10.3071 16.6239 10.2288 16.6719 10.1255Z" fill="#0FA094"/>
<path d="M17.3086 8.51459C17.3076 8.49357 17.3056 8.47346 17.3037 8.45498L16.7823 8.45498V8.51067C16.7823 8.59046 16.7652 8.65153 16.7311 8.69389C16.6968 8.73641 16.6475 8.75766 16.5829 8.75766C16.5237 8.75766 16.3696 8.69058 16.1206 8.55642C15.8716 8.42225 15.6474 8.35524 15.4479 8.3554C15.2758 8.3554 15.1257 8.40584 14.9978 8.50674C14.8755 8.60309 14.7787 8.74496 14.6971 8.93327L14.6949 8.93608L14.6918 8.93696C14.6888 8.93696 14.6857 8.93488 14.6857 8.93096L14.6861 8.45498L14.0001 8.45498V10.324H14.6781C14.6887 10.116 14.7216 9.96092 14.777 9.85864C14.8455 9.73264 14.9569 9.66964 15.1113 9.66964C15.1581 9.66964 15.2685 9.69275 15.4426 9.73896C15.5929 9.7818 15.7461 9.80502 15.8999 9.80827C15.9889 9.80813 16.0775 9.79338 16.1636 9.76437C16.2564 9.733 16.3467 9.69037 16.4334 9.63706C16.3045 9.83592 16.1111 10.0923 15.853 10.4062C15.5949 10.7202 15.42 10.9525 15.3282 11.1031C15.1465 11.4086 15.0141 11.7239 14.931 12.049C14.8565 12.3405 14.8154 12.6654 14.8077 13.0239C14.8077 13.0643 14.7747 13.0967 14.7354 13.0967H14.4407L14.4407 13.6606H16.4225L16.4227 13.0973L16.13 13.0967C16.0891 13.0967 16.0564 13.0618 16.0575 13.0197C16.0659 12.6385 16.1087 12.2599 16.185 11.8917C16.272 11.483 16.4386 11.0038 16.6848 10.4541C16.7085 10.3983 16.7438 10.32 16.7905 10.2191C17.1369 9.4754 17.3101 8.93912 17.3101 8.61025C17.3101 8.56774 17.3095 8.53608 17.3086 8.51459ZM15.919 13.0144C15.918 13.0475 15.9223 13.0805 15.9314 13.1114C15.9406 13.1423 15.9545 13.1705 15.9723 13.1942C15.9929 13.2213 16.0175 13.2427 16.0446 13.2572C16.0717 13.2717 16.1007 13.2791 16.13 13.2787L16.2049 13.2776C16.2255 13.2776 16.2453 13.2882 16.2598 13.3071C16.2744 13.3261 16.2826 13.3518 16.2826 13.3785C16.2826 13.4053 16.2744 13.431 16.2598 13.4499C16.2453 13.4689 16.2255 13.4795 16.2049 13.4795H14.6575C14.6472 13.4795 14.6371 13.4769 14.6276 13.4718C14.6182 13.4668 14.6096 13.4593 14.6023 13.4498C14.5951 13.4404 14.5894 13.4292 14.5855 13.4169C14.5817 13.4046 14.5797 13.3914 14.5798 13.3781C14.5798 13.3513 14.588 13.3256 14.6025 13.3067C14.6171 13.2877 14.6369 13.2771 14.6575 13.2771H14.7354C14.8511 13.2771 14.9439 13.168 14.947 13.0285C14.9511 12.7157 14.9902 12.4054 15.0631 12.1073C15.1485 11.7848 15.2752 11.4834 15.4379 11.2159C15.5251 11.0724 15.6967 10.845 15.9481 10.5398C16.207 10.2253 16.4053 9.96216 16.5374 9.75929C16.5561 9.73133 16.5678 9.69674 16.5712 9.66C16.5746 9.62326 16.5694 9.58605 16.5563 9.55319C16.5443 9.52437 16.5266 9.50028 16.5049 9.48348C16.4833 9.46669 16.4586 9.4578 16.4334 9.45776C16.413 9.45775 16.3929 9.46358 16.3745 9.47486C16.2957 9.52324 16.2135 9.56192 16.1291 9.59039C16.0543 9.61561 15.9773 9.62804 15.8999 9.62829C15.7555 9.62472 15.6116 9.60258 15.4705 9.56221C15.2267 9.49705 15.1504 9.48873 15.1113 9.48873C14.86 9.48873 14.729 9.63337 14.6632 9.75468C14.6223 9.83198 14.5922 9.91846 14.5743 10.0093C14.5664 10.0476 14.549 10.0814 14.5249 10.1056C14.5008 10.1298 14.4712 10.1431 14.4407 10.1433H14.2782C14.2413 10.1433 14.206 10.1243 14.18 10.0904C14.1539 10.0566 14.1393 10.0107 14.1393 9.96285V8.81635C14.1393 8.76849 14.1539 8.72259 14.18 8.68875C14.206 8.65491 14.2413 8.6359 14.2782 8.6359H14.4082C14.4264 8.63587 14.4445 8.64051 14.4614 8.64956C14.4783 8.65862 14.4936 8.6719 14.5065 8.68866C14.5195 8.70541 14.5297 8.72532 14.5367 8.74723C14.5438 8.76914 14.5474 8.79262 14.5474 8.81635L14.5474 8.9312C14.5477 8.97277 14.5586 9.01373 14.5784 9.04646C14.5981 9.07919 14.6256 9.10255 14.6566 9.11292C14.6876 9.12329 14.7203 9.12009 14.7498 9.10382C14.7792 9.08755 14.8037 9.05911 14.8195 9.02292C14.8906 8.85679 14.9736 8.73895 15.0709 8.66224C15.1776 8.57814 15.3021 8.53701 15.4488 8.53701C15.6287 8.53701 15.8372 8.60008 16.0683 8.72439C16.4192 8.9134 16.5232 8.93927 16.584 8.93927C16.6854 8.93927 16.7675 8.90092 16.8283 8.82536C16.8501 8.79848 16.8685 8.76729 16.8828 8.73294C16.8946 8.7041 16.9123 8.67997 16.9339 8.66309C16.9554 8.64621 16.9801 8.63722 17.0053 8.63705H17.007C17.0284 8.63711 17.0494 8.64356 17.0686 8.65588C17.0877 8.66821 17.1044 8.68609 17.1173 8.70814C17.1303 8.73019 17.1391 8.75582 17.1432 8.78304C17.1473 8.81026 17.1465 8.83834 17.141 8.86511C17.089 9.11603 16.9597 9.51044 16.6729 10.1267C16.6249 10.2299 16.5897 10.3083 16.5653 10.3663C16.3146 10.9259 16.1421 11.4233 16.0525 11.845C15.9732 12.2264 15.9284 12.6196 15.919 13.0144Z" fill="url(#paint4_linear_994_94630)"/>
<path d="M17.3086 8.51459C17.3076 8.49357 17.3056 8.47346 17.3037 8.45498L16.7823 8.45498V8.51067C16.7823 8.59046 16.7652 8.65153 16.7311 8.69389C16.6968 8.73641 16.6475 8.75766 16.5829 8.75766C16.5237 8.75766 16.3696 8.69058 16.1206 8.55642C15.8716 8.42225 15.6474 8.35524 15.4479 8.3554C15.2758 8.3554 15.1257 8.40584 14.9978 8.50674C14.8755 8.60309 14.7787 8.74496 14.6971 8.93327L14.6949 8.93608L14.6918 8.93696C14.6888 8.93696 14.6857 8.93488 14.6857 8.93096L14.6861 8.45498L14.0001 8.45498V10.324H14.6781C14.6887 10.116 14.7216 9.96092 14.777 9.85864C14.8455 9.73264 14.9569 9.66964 15.1113 9.66964C15.1581 9.66964 15.2685 9.69275 15.4426 9.73896C15.5929 9.7818 15.7461 9.80502 15.8999 9.80827C15.9889 9.80813 16.0775 9.79338 16.1636 9.76437C16.2564 9.733 16.3467 9.69037 16.4334 9.63706C16.3045 9.83592 16.1111 10.0923 15.853 10.4062C15.5949 10.7202 15.42 10.9525 15.3282 11.1031C15.1465 11.4086 15.0141 11.7239 14.931 12.049C14.8565 12.3405 14.8154 12.6654 14.8077 13.0239C14.8077 13.0643 14.7747 13.0967 14.7354 13.0967H14.4407L14.4407 13.6606H16.4225L16.4227 13.0973L16.13 13.0967C16.0891 13.0967 16.0564 13.0618 16.0575 13.0197C16.0659 12.6385 16.1087 12.2599 16.185 11.8917C16.272 11.483 16.4386 11.0038 16.6848 10.4541C16.7085 10.3983 16.7438 10.32 16.7905 10.2191C17.1369 9.4754 17.3101 8.93912 17.3101 8.61025C17.3101 8.56774 17.3095 8.53608 17.3086 8.51459ZM15.919 13.0144C15.918 13.0475 15.9223 13.0805 15.9314 13.1114C15.9406 13.1423 15.9545 13.1705 15.9723 13.1942C15.9929 13.2213 16.0175 13.2427 16.0446 13.2572C16.0717 13.2717 16.1007 13.2791 16.13 13.2787L16.2049 13.2776C16.2255 13.2776 16.2453 13.2882 16.2598 13.3071C16.2744 13.3261 16.2826 13.3518 16.2826 13.3785C16.2826 13.4053 16.2744 13.431 16.2598 13.4499C16.2453 13.4689 16.2255 13.4795 16.2049 13.4795H14.6575C14.6472 13.4795 14.6371 13.4769 14.6276 13.4718C14.6182 13.4668 14.6096 13.4593 14.6023 13.4498C14.5951 13.4404 14.5894 13.4292 14.5855 13.4169C14.5817 13.4046 14.5797 13.3914 14.5798 13.3781C14.5798 13.3513 14.588 13.3256 14.6025 13.3067C14.6171 13.2877 14.6369 13.2771 14.6575 13.2771H14.7354C14.8511 13.2771 14.9439 13.168 14.947 13.0285C14.9511 12.7157 14.9902 12.4054 15.0631 12.1073C15.1485 11.7848 15.2752 11.4834 15.4379 11.2159C15.5251 11.0724 15.6967 10.845 15.9481 10.5398C16.207 10.2253 16.4053 9.96216 16.5374 9.75929C16.5561 9.73133 16.5678 9.69674 16.5712 9.66C16.5746 9.62326 16.5694 9.58605 16.5563 9.55319C16.5443 9.52437 16.5266 9.50028 16.5049 9.48348C16.4833 9.46669 16.4586 9.4578 16.4334 9.45776C16.413 9.45775 16.3929 9.46358 16.3745 9.47486C16.2957 9.52324 16.2135 9.56192 16.1291 9.59039C16.0543 9.61561 15.9773 9.62804 15.8999 9.62829C15.7555 9.62472 15.6116 9.60258 15.4705 9.56221C15.2267 9.49705 15.1504 9.48873 15.1113 9.48873C14.86 9.48873 14.729 9.63337 14.6632 9.75468C14.6223 9.83198 14.5922 9.91846 14.5743 10.0093C14.5664 10.0476 14.549 10.0814 14.5249 10.1056C14.5008 10.1298 14.4712 10.1431 14.4407 10.1433H14.2782C14.2413 10.1433 14.206 10.1243 14.18 10.0904C14.1539 10.0566 14.1393 10.0107 14.1393 9.96285V8.81635C14.1393 8.76849 14.1539 8.72259 14.18 8.68875C14.206 8.65491 14.2413 8.6359 14.2782 8.6359H14.4082C14.4264 8.63587 14.4445 8.64051 14.4614 8.64956C14.4783 8.65862 14.4936 8.6719 14.5065 8.68866C14.5195 8.70541 14.5297 8.72532 14.5367 8.74723C14.5438 8.76914 14.5474 8.79262 14.5474 8.81635L14.5474 8.9312C14.5477 8.97277 14.5586 9.01373 14.5784 9.04646C14.5981 9.07919 14.6256 9.10255 14.6566 9.11292C14.6876 9.12329 14.7203 9.12009 14.7498 9.10382C14.7792 9.08755 14.8037 9.05911 14.8195 9.02292C14.8906 8.85679 14.9736 8.73895 15.0709 8.66224C15.1776 8.57814 15.3021 8.53701 15.4488 8.53701C15.6287 8.53701 15.8372 8.60008 16.0683 8.72439C16.4192 8.9134 16.5232 8.93927 16.584 8.93927C16.6854 8.93927 16.7675 8.90092 16.8283 8.82536C16.8501 8.79848 16.8685 8.76729 16.8828 8.73294C16.8946 8.7041 16.9123 8.67997 16.9339 8.66309C16.9554 8.64621 16.9801 8.63722 17.0053 8.63705H17.007C17.0284 8.63711 17.0494 8.64356 17.0686 8.65588C17.0877 8.66821 17.1044 8.68609 17.1173 8.70814C17.1303 8.73019 17.1391 8.75582 17.1432 8.78304C17.1473 8.81026 17.1465 8.83834 17.141 8.86511C17.089 9.11603 16.9597 9.51044 16.6729 10.1267C16.6249 10.2299 16.5897 10.3083 16.5653 10.3663C16.3146 10.9259 16.1421 11.4233 16.0525 11.845C15.9732 12.2264 15.9284 12.6196 15.919 13.0144Z" fill="url(#paint5_linear_994_94630)"/>
<path d="M14.2342 8.75698C14.2095 8.75698 14.1907 8.93489 14.1878 9.00098C14.1811 9.16271 14.1878 9.48619 14.1878 9.64793C14.1878 9.83508 14.2086 9.95431 14.2342 9.95431C14.2598 9.95431 14.2814 9.86004 14.2844 9.66133C14.2869 9.49959 14.2876 9.16225 14.2808 9.00144C14.278 8.93489 14.26 8.75698 14.2342 8.75698Z" fill="white"/>
<path d="M15.9378 8.72416C15.7127 8.61256 15.5215 8.56242 15.3451 8.59962C15.1205 8.64583 14.9327 8.83206 14.8664 9.07467C14.8579 9.10609 14.8584 9.15993 14.8733 9.16894C14.9089 9.18973 14.9425 9.13659 14.9539 9.1151C15.0451 8.94066 15.1673 8.78816 15.3595 8.74888C15.5185 8.7163 15.6751 8.75535 15.902 8.83576C15.9268 8.84454 16.1942 8.94898 16.2043 8.91801C16.2145 8.88705 16.0662 8.78793 15.9378 8.72416Z" fill="white"/>
<path d="M16.13 10.4624C16.0989 10.4367 16.0358 10.5019 15.9373 10.6287C15.6705 10.9714 15.3761 11.3912 15.2013 11.8928C15.0873 12.2284 15.0238 12.5891 15.0142 12.9557C15.0131 12.989 15.0094 13.108 15.048 13.108C15.0915 13.108 15.1038 12.9924 15.107 12.961C15.1415 12.6033 15.2175 12.2545 15.3323 11.9263C15.5011 11.4411 15.7429 11.0483 16.0027 10.7135C16.0208 10.6909 16.1693 10.4945 16.13 10.4624Z" fill="white"/>
<defs>
<linearGradient id="paint0_linear_994_94630" x1="0" y1="11.8955" x2="24" y2="11.8955" gradientUnits="userSpaceOnUse">
<stop stop-color="#FEFFB5"/>
<stop offset="0.51" stop-color="#FFD717"/>
<stop offset="1" stop-color="#F08D1E"/>
</linearGradient>
<linearGradient id="paint1_linear_994_94630" x1="0.540239" y1="2.7473" x2="12.0625" y2="24.0701" gradientUnits="userSpaceOnUse">
<stop stop-color="#0C8285"/>
<stop offset="1" stop-color="#20BBB1"/>
</linearGradient>
<linearGradient id="paint2_linear_994_94630" x1="0" y1="11.8955" x2="24" y2="11.8955" gradientUnits="userSpaceOnUse">
<stop stop-color="#FEFFB5"/>
<stop offset="0.51" stop-color="#FFD717"/>
<stop offset="1" stop-color="#F08D1E"/>
</linearGradient>
<linearGradient id="paint3_linear_994_94630" x1="0.540239" y1="2.7473" x2="12.0625" y2="24.0701" gradientUnits="userSpaceOnUse">
<stop stop-color="#0C8285"/>
<stop offset="1" stop-color="#20BBB1"/>
</linearGradient>
<linearGradient id="paint4_linear_994_94630" x1="0" y1="11.8955" x2="24" y2="11.8955" gradientUnits="userSpaceOnUse">
<stop stop-color="#FEFFB5"/>
<stop offset="0.51" stop-color="#FFD717"/>
<stop offset="1" stop-color="#F08D1E"/>
</linearGradient>
<linearGradient id="paint5_linear_994_94630" x1="0.540239" y1="2.7473" x2="12.0625" y2="24.0701" gradientUnits="userSpaceOnUse">
<stop stop-color="#0C8285"/>
<stop offset="1" stop-color="#20BBB1"/>
</linearGradient>
</defs>
</svg>
