<svg width="24" height="24" viewBox="0 0 24 24" fill="none" xmlns="http://www.w3.org/2000/svg">
<path d="M23 7.63582C23 9.1691 22.4044 10.7275 21.369 11.9057C21.1399 12.1665 20.8651 12.4367 20.5352 12.6975C20.1717 12.9834 19.7411 13.2536 19.2402 13.4736C18.5255 13.7846 17.6642 13.9952 16.641 13.9952C16.3356 13.9952 16.0729 13.8035 15.9629 13.5301C15.9263 13.4422 15.9049 13.3416 15.9049 13.2411C15.9049 12.8232 16.2348 12.4839 16.641 12.4839C16.6593 12.4839 16.6776 12.4839 16.699 12.4839C17.3587 12.4776 17.9268 12.3613 18.4125 12.1822C19.2707 11.868 19.8785 11.3528 20.2786 10.894C21.0636 10.0017 21.5309 8.78578 21.5309 7.63896C21.5309 5.09398 19.5914 4.89603 18.9958 4.89603C18.5896 4.89603 18.2598 4.5567 18.2598 4.13882C18.2598 3.72094 18.5896 3.38161 18.9958 3.38161C19.2982 3.38161 19.5884 3.40988 19.8633 3.4633C21.7691 3.82462 23 5.41131 23 7.63582Z" fill="url(#paint0_linear_825_81034)"/>
<path d="M19.2371 13.4736C18.5224 13.7846 17.6611 13.9952 16.6379 13.9952C16.3325 13.9952 16.0698 13.8035 15.9599 13.5301C15.9904 13.4107 16.0393 13.2945 16.1004 13.1845C16.2409 12.93 16.4424 12.7164 16.6532 12.5216C16.6685 12.509 16.6807 12.4964 16.696 12.4807C17.3557 12.4744 17.9238 12.3582 18.4094 12.1791C18.4002 12.2042 18.385 12.2325 18.3636 12.2639C18.1987 12.509 18.0704 12.7446 18.0337 13.0494C18.0154 13.194 18.0246 13.3573 18.1254 13.4579C18.2231 13.5553 18.3697 13.5678 18.5071 13.5553C18.7484 13.527 18.9958 13.4453 19.2371 13.4736Z" fill="#3CCCCA"/>
<path d="M8.09815 13.2348C8.09815 13.417 8.03707 13.5835 7.93322 13.7155C7.79883 13.8852 7.59114 13.992 7.36207 13.992C4.97057 13.992 3.47092 12.8577 2.63099 11.9057C1.59559 10.7244 1 9.16909 1 7.63582C1 6.48586 1.34819 5.43959 1.98348 4.68552C2.70429 3.83091 3.74885 3.37846 5.00722 3.37846C5.41344 3.37846 5.7433 3.71779 5.7433 4.13568C5.7433 4.55356 5.41344 4.89289 5.00722 4.89289C4.65292 4.89289 4.33222 4.94002 4.04512 5.03742C3.66333 5.16624 3.34569 5.37989 3.09524 5.67838C2.69207 6.15595 2.47216 6.85033 2.47216 7.63582C2.47216 9.22565 3.41899 11.3276 5.48063 12.1382C6.01208 12.3488 6.61377 12.4713 7.29488 12.4776C7.31626 12.4776 7.34069 12.4776 7.36207 12.4776C7.76829 12.4776 8.09815 12.8169 8.09815 13.2348Z" fill="url(#paint1_linear_825_81034)"/>
<path d="M7.93322 13.7155C7.79883 13.8852 7.59114 13.992 7.36207 13.992C4.97057 13.992 3.47092 12.8577 2.63099 11.9057C1.59559 10.7244 1 9.16909 1 7.63582C1 6.48586 1.34819 5.43959 1.98348 4.68552C2.70429 3.83091 3.74885 3.37846 5.00722 3.37846C5.41344 3.37846 5.7433 3.71779 5.7433 4.13568C5.7433 4.55356 5.41344 4.89289 5.00722 4.89289C4.65292 4.89289 4.33222 4.94002 4.04512 5.03742C4.04512 4.91488 4.08788 4.82062 3.97793 4.67923C3.87408 4.54099 3.69388 4.44987 3.52284 4.45615C3.19603 4.46558 2.91809 4.71065 2.7104 4.97144C1.72997 6.20308 1.65056 7.98771 2.08427 9.51785C2.2156 9.97972 2.3897 10.4322 2.65848 10.8249C3.19298 11.6041 4.04512 12.0754 4.86672 12.5184C5.07441 12.6315 5.39817 12.7069 5.4898 12.4839C5.53561 12.377 5.49285 12.2545 5.48063 12.1351C6.01208 12.3456 6.61377 12.4681 7.29488 12.4744C7.62169 12.8138 7.85381 13.2473 7.93322 13.7155Z" fill="url(#paint2_linear_825_81034)"/>
<path d="M14.6924 19.8486C14.2006 19.8486 13.7883 19.4653 13.7364 18.9626L13.3179 14.7524H10.676L10.2575 18.9626C10.2087 19.4653 9.79634 19.8486 9.30154 19.8486C8.7701 19.8486 8.3425 20.2916 8.3425 20.8352V23H15.6483V20.8352C15.6545 20.2916 15.2238 19.8486 14.6924 19.8486Z" fill="url(#paint3_linear_825_81034)"/>
<path d="M12.0107 14.9063H9.60086V16.4616H14.3991V14.9063H12.0107Z" fill="url(#paint4_linear_825_81034)"/>
<path d="M11.9527 14.9063C11.803 15.1388 11.7572 15.409 11.9007 15.651C12.1206 15.9055 12.3925 15.7295 12.6307 15.9055C12.8659 16.0814 12.8659 16.2291 12.8659 16.4616H14.3991V14.9063H12.0107H11.9527Z" fill="#10A4A1"/>
<path d="M12.2336 16.4616H12.5483C12.4444 16.4584 12.3375 16.4522 12.2336 16.4616Z" fill="#10A4A1"/>
<path d="M18.4674 1.42416C16.3203 1.14139 14.1609 1 11.9985 1C9.83909 1 7.67666 1.14139 5.5295 1.42416C4.80869 1.51842 4.28946 2.18138 4.34749 2.92602L4.81174 8.83291C5.11412 12.6818 8.2417 15.6478 11.9954 15.6478C15.7491 15.6478 18.8767 12.6818 19.1791 8.83291L19.6433 2.92602C19.7075 2.18138 19.1883 1.51842 18.4674 1.42416Z" fill="url(#paint5_linear_825_81034)"/>
<path fill-rule="evenodd" clip-rule="evenodd" d="M14.8506 7.45858L14.4387 10.9335C14.4268 11.0361 14.3502 11.1031 14.2408 11.1031H12.5562C12.4469 11.1031 12.3911 11.0466 12.3911 10.9568V10.9335L12.8059 7.40263C12.8279 7.26741 12.8487 7.13335 12.8487 6.99871C12.8487 6.79647 12.8279 6.67174 12.762 6.58198C12.6752 6.459 12.523 6.41412 12.3156 6.41412C12.0219 6.41412 11.6302 6.47007 11.6302 6.47007L11.0971 10.9335C11.0864 11.0361 11.0114 11.1031 10.9026 11.1031H9.2158C9.10816 11.1031 9.05405 11.0466 9.05405 10.9568V10.9335L9.65259 5.91812C9.69542 5.51362 10.099 5.40113 10.7944 5.26533C11.3377 5.15226 12.098 5.05143 12.7839 5.05143C13.5239 5.05143 14.1118 5.13069 14.4922 5.43436C14.774 5.64768 14.9369 5.98515 14.9369 6.5132C14.9369 6.81861 14.8811 7.1555 14.8506 7.45858Z" fill="#10A4A1"/>
<path d="M21.1308 4.08855C20.8803 3.90317 20.581 3.79006 20.2756 3.76492C20.2237 3.76178 20.1626 3.76178 20.1259 3.79949C20.1076 3.81834 20.0984 3.84347 20.0923 3.87175C20.0618 4.01942 20.1656 4.15453 20.2695 4.26135C20.8467 4.85833 21.6164 5.29506 21.9707 6.05227C22.2059 6.55184 22.2242 7.12682 22.2395 7.67981C22.2425 7.83691 22.2609 8.01914 22.3922 8.10083C22.4961 8.04113 22.5205 7.90289 22.5327 7.78349C22.606 7.04513 22.5724 6.28164 22.3189 5.58726C22.0654 4.89289 21.5737 4.26764 20.9109 3.97544L21.1308 4.08855Z" fill="#10A4A1"/>
<path d="M13.2049 18.9594C13.2782 19.2611 13.4157 19.5501 13.6356 19.7606C13.9379 20.0497 14.3655 20.1628 14.671 20.4487C15.068 20.8195 15.1872 21.4699 14.9489 21.9632C14.9062 22.0511 14.8512 22.136 14.7748 22.1925C14.6404 22.2931 14.4541 22.2931 14.2922 22.2522C14.0907 22.202 13.9013 22.0857 13.7822 21.9098C13.6753 21.7495 13.6356 21.5516 13.5836 21.3662C13.492 21.0489 13.3515 20.7378 13.1163 20.5116C12.9789 20.3796 12.814 20.2791 12.6796 20.144C12.4719 19.9366 12.3436 19.6538 12.2917 19.3616C12.2397 19.0694 12.255 18.7678 12.31 18.4724C12.365 18.1708 12.6551 17.5644 13.0369 17.9006C13.1438 17.9949 13.1285 18.1205 13.1285 18.2556C13.1255 18.4881 13.1469 18.7269 13.2049 18.9594Z" fill="#10A4A1"/>
<path fill-rule="evenodd" clip-rule="evenodd" d="M15.0594 7.40715L14.6474 10.8821C14.6356 10.9847 14.5589 11.0517 14.4496 11.0517H12.765C12.6557 11.0517 12.5999 10.9952 12.5999 10.9054V10.8821L13.0147 7.3512C13.0366 7.21598 13.0575 7.08193 13.0575 6.94729C13.0575 6.74504 13.0366 6.62031 12.9707 6.53055C12.8839 6.40757 12.7317 6.36269 12.5243 6.36269C12.2307 6.36269 11.839 6.41865 11.839 6.41865L11.3058 10.8821C11.2951 10.9847 11.2202 11.0517 11.1114 11.0517H9.42456C9.31691 11.0517 9.26281 10.9952 9.26281 10.9054V10.8821L9.86135 5.86669C9.90418 5.4622 10.3077 5.34971 11.0032 5.2139C11.5465 5.10083 12.3068 5 12.9927 5C13.7327 5 14.3205 5.07927 14.7009 5.38293C14.9827 5.59625 15.1456 5.93372 15.1456 6.46178C15.1456 6.76719 15.0898 7.10407 15.0594 7.40715Z" fill="white"/>
<path d="M18.5409 4.58631C18.3668 2.32725 13.767 2.5032 13.7579 2.5032C13.541 2.5409 13.3303 2.65715 13.2234 2.8551C13.1287 3.03105 13.0584 3.42379 13.4769 3.85424C13.9381 4.32867 14.7597 4.6303 15.0101 4.78112C15.4163 5.02305 17.6765 5.74255 15.6088 11.6557C15.5141 11.9259 15.4163 12.2401 15.5599 12.4852C15.7126 12.746 16.0852 12.7868 16.351 12.6517C16.6167 12.5166 16.7938 12.2527 16.9496 11.9919C17.9942 10.2418 18.4859 8.19328 18.6111 6.15729C18.6447 5.63259 18.5836 5.11416 18.5409 4.58631Z" fill="#76DAD1"/>
<path d="M20.9997 4.32487C20.7493 4.1395 20.45 4.02639 20.1445 4.00125C20.0926 3.99811 20.0315 3.99811 19.9949 4.03581C19.9765 4.05466 19.9674 4.0798 19.9613 4.10808C19.9307 4.25575 20.0346 4.39085 20.1384 4.49768C20.7157 5.09465 21.4854 5.53139 21.8397 6.2886C22.0749 6.78817 22.0932 7.36315 22.1084 7.91613C22.1115 8.07323 22.1298 8.25547 22.2612 8.33716C22.365 8.27746 22.3894 8.13921 22.4017 8.01982C22.475 7.28146 22.4414 6.51796 22.1879 5.82359C21.9344 5.12921 21.4426 4.50396 20.7798 4.21176L20.9997 4.32487Z" fill="#76DAD1"/>
<path d="M13.1242 19.1575C13.1975 19.4591 13.335 19.7482 13.5549 19.9587C13.8573 20.2478 14.2849 20.3609 14.5903 20.6468C14.9874 21.0176 15.1065 21.6679 14.8682 22.1612C14.8255 22.2492 14.7705 22.334 14.6941 22.3906C14.5598 22.4911 14.3734 22.4911 14.2116 22.4503C14.01 22.4 13.8206 22.2838 13.7015 22.1078C13.5946 21.9476 13.5549 21.7496 13.503 21.5643C13.4113 21.2469 13.3515 20.7378 13.1163 20.5116C12.9789 20.3796 12.814 20.2791 12.6796 20.144C12.4719 19.9366 12.3436 19.6538 12.2917 19.3616C12.2397 19.0694 12.1743 18.9659 12.2293 18.6705C12.2843 18.3689 12.5745 17.7625 12.9562 18.0987C13.0631 18.1929 13.0479 18.3186 13.0479 18.4537C13.0448 18.6862 13.0662 18.925 13.1242 19.1575Z" fill="#76DAD1"/>
<defs>
<linearGradient id="paint0_linear_825_81034" x1="11.993" y1="0.992882" x2="11.993" y2="22.9953" gradientUnits="userSpaceOnUse">
<stop stop-color="#29A8AC"/>
<stop offset="1" stop-color="#2DB6B2"/>
</linearGradient>
<linearGradient id="paint1_linear_825_81034" x1="12.0012" y1="0.999394" x2="12.0012" y2="23.0019" gradientUnits="userSpaceOnUse">
<stop stop-color="#76DAD1"/>
<stop offset="1" stop-color="#8ED6D4"/>
</linearGradient>
<linearGradient id="paint2_linear_825_81034" x1="12.0056" y1="1" x2="12.0056" y2="23.0021" gradientUnits="userSpaceOnUse">
<stop stop-color="#1DC4B4"/>
<stop offset="1" stop-color="#0C999B"/>
</linearGradient>
<linearGradient id="paint3_linear_825_81034" x1="12.0056" y1="1" x2="12.0056" y2="23.0021" gradientUnits="userSpaceOnUse">
<stop stop-color="#1DC4B4"/>
<stop offset="1" stop-color="#0C999B"/>
</linearGradient>
<linearGradient id="paint4_linear_825_81034" x1="11.9989" y1="0.997289" x2="11.9989" y2="22.9898" gradientUnits="userSpaceOnUse">
<stop stop-color="#71D1CB"/>
<stop offset="1" stop-color="#20BBB1"/>
</linearGradient>
<linearGradient id="paint5_linear_825_81034" x1="12.0056" y1="1" x2="12.0056" y2="23.0021" gradientUnits="userSpaceOnUse">
<stop stop-color="#1DC4B4"/>
<stop offset="1" stop-color="#0C999B"/>
</linearGradient>
</defs>
</svg>
